<?xml version="1.0" encoding="UTF-8" standalone="no"?>
<svg
   width="20"
   height="20"
   viewBox="0 0 20 20"
   fill="none"
   version="1.1"
   id="svg1"
   sodipodi:docname="download.svg"
   inkscape:version="1.4.3 (0d15f75, 2025-12-25)"
   xmlns:inkscape="http://www.inkscape.org/namespaces/inkscape"
   xmlns:sodipodi="http://sodipodi.sourceforge.net/DTD/sodipodi-0.dtd"
   xmlns="http://www.w3.org/2000/svg"
   xmlns:svg="http://www.w3.org/2000/svg">
  <defs
     id="defs1" />
  <sodipodi:namedview
     id="namedview1"
     pagecolor="#ffffff"
     bordercolor="#000000"
     borderopacity="0.25"
     inkscape:showpageshadow="2"
     inkscape:pageopacity="0.0"
     inkscape:pagecheckerboard="0"
     inkscape:deskcolor="#d1d1d1"
     inkscape:zoom="41.65"
     inkscape:cx="10.012005"
     inkscape:cy="10"
     inkscape:window-width="1920"
     inkscape:window-height="1051"
     inkscape:window-x="-9"
     inkscape:window-y="-9"
     inkscape:window-maximized="1"
     inkscape:current-layer="svg1" />
  <path
     style="baseline-shift:baseline;display:inline;overflow:visible;vector-effect:none;fill:#0071dc;stroke-linecap:round;stroke-linejoin:round;enable-background:accumulate;stop-color:#000000;stop-opacity:1;opacity:1"
     d="m 10,2.5839844 a 0.75,0.75 0 0 0 -0.75,0.75 V 10.689453 L 8.03125,9.4707031 a 0.75,0.75 0 0 0 -1.0625,0 0.75,0.75 0 0 0 0,1.0605469 l 2.5,2.5 A 0.75,0.75 0 0 0 10,13.25 0.75,0.75 0 0 0 10.53125,13.03125 l 2.5,-2.5 a 0.75,0.75 0 0 0 0,-1.0605469 0.75,0.75 0 0 0 -1.0625,0 L 10.75,10.689453 V 3.3339844 a 0.75,0.75 0 0 0 -0.75,-0.75 z M 5,10.916016 c -0.77657,0 -1.2444554,-0.02714 -1.7578125,0.185547 -0.5917748,0.245184 -1.0634256,0.7147 -1.3085938,1.30664 C 1.7209675,12.921543 1.75,13.389516 1.75,14.166016 c 0,0.7766 -0.029033,1.246425 0.1835937,1.759765 0.2451675,0.591794 0.7167225,1.061417 1.3085938,1.306641 C 3.7554531,17.444907 4.22343,17.416016 5,17.416016 h 10 c 0.7766,0 1.244531,0.02896 1.757812,-0.183594 0.591877,-0.245214 1.063457,-0.714746 1.308594,-1.306641 C 18.279094,15.412414 18.25,14.942616 18.25,14.166016 c 0,-0.7765 0.02909,-1.244446 -0.183594,-1.757813 -0.245137,-0.592041 -0.716813,-1.061466 -1.308594,-1.30664 C 16.24444,10.888803 15.7766,10.916016 15,10.916016 h -0.5 a 0.75,0.75 0 0 0 -0.75,0.75 0.75,0.75 0 0 0 0.75,0.75 H 15 c 0.7766,0 1.084567,0.02927 1.183594,0.07031 0.22502,0.09323 0.403031,0.271335 0.496093,0.496094 0.04111,0.09923 0.07031,0.407094 0.07031,1.183594 0,0.7766 -0.0292,1.086314 -0.07031,1.185547 -0.09306,0.224705 -0.27117,0.402908 -0.496093,0.496093 C 16.084475,15.888702 15.7766,15.916016 15,15.916016 H 5 c -0.77657,0 -1.0842793,-0.02725 -1.1835937,-0.06836 C 3.5915176,15.75448 3.413445,15.576369 3.3203125,15.351563 3.2791987,15.252302 3.25,14.942616 3.25,14.166016 c 0,-0.7765 0.029199,-1.084334 0.070312,-1.183594 0.093132,-0.22486 0.2711085,-0.402878 0.4960938,-0.496094 C 3.9156291,12.445219 4.22343,12.416016 5,12.416016 h 0.5 a 0.75,0.75 0 0 0 0.75,-0.75 0.75,0.75 0 0 0 -0.75,-0.75 z m 9.166016,2.5 a 0.75,0.75 0 0 0 -0.75,0.75 0.75,0.75 0 0 0 0.75,0.75 h 0.0098 a 0.75,0.75 0 0 0 0.75,-0.75 0.75,0.75 0 0 0 -0.75,-0.75 z"
     id="path1" />
</svg>
