<svg width="24" height="24" viewBox="0 0 24 24" fill="none" xmlns="http://www.w3.org/2000/svg">
<path d="M12 2C14.6522 2 17.1957 3.05357 19.0711 4.92893C20.9464 6.8043 22 9.34784 22 12C22 14.6522 20.9464 17.1957 19.0711 19.0711C17.1957 20.9464 14.6522 22 12 22C9.34784 22 6.8043 20.9464 4.92893 19.0711C3.05357 17.1957 2 14.6522 2 12C2 9.34784 3.05357 6.8043 4.92893 4.92893C6.8043 3.05357 9.34784 2 12 2ZM12 3.25C9.80807 3.24831 7.69533 4.06937 6.07975 5.55075C4.46417 7.03213 3.46342 9.06592 3.27549 11.2498C3.08756 13.4336 3.72612 15.6085 5.06486 17.3441C6.4036 19.0797 8.345 20.2497 10.505 20.6225V14.715H8.03125V12.075H10.5062V10.315C10.5062 7.405 11.9163 6.1275 14.3238 6.1275C15.4763 6.1275 16.0862 6.2125 16.3737 6.2525V8.5575H14.7325C13.71 8.5575 13.3538 9.5325 13.3538 10.6287V12.075H16.3488L15.9412 14.7163H13.3538V20.6475C15.5281 20.3036 17.493 19.1529 18.8568 17.4248C20.2206 15.6968 20.8832 13.5182 20.7124 11.3235C20.5416 9.12872 19.55 7.07892 17.9353 5.58263C16.3206 4.08634 14.2014 3.25346 12 3.25Z" fill="#202939"/>
</svg>
