<?xml version="1.0" encoding="UTF-8" standalone="no"?>
<svg
   width="20"
   height="20"
   viewBox="0 0 20 20"
   fill="none"
   version="1.1"
   id="svg1"
   sodipodi:docname="maile.svg"
   inkscape:version="1.4.3 (0d15f75, 2025-12-25)"
   xmlns:inkscape="http://www.inkscape.org/namespaces/inkscape"
   xmlns:sodipodi="http://sodipodi.sourceforge.net/DTD/sodipodi-0.dtd"
   xmlns="http://www.w3.org/2000/svg"
   xmlns:svg="http://www.w3.org/2000/svg">
  <defs
     id="defs1" />
  <sodipodi:namedview
     id="namedview1"
     pagecolor="#ffffff"
     bordercolor="#000000"
     borderopacity="0.25"
     inkscape:showpageshadow="2"
     inkscape:pageopacity="0.0"
     inkscape:pagecheckerboard="0"
     inkscape:deskcolor="#d1d1d1"
     inkscape:zoom="42.75"
     inkscape:cx="10"
     inkscape:cy="10"
     inkscape:window-width="1920"
     inkscape:window-height="1057"
     inkscape:window-x="-8"
     inkscape:window-y="-8"
     inkscape:window-maximized="1"
     inkscape:current-layer="svg1" />
  <path
     style="baseline-shift:baseline;display:inline;overflow:visible;vector-effect:none;fill:#ffffff;stroke-linecap:round;stroke-linejoin:round;enable-background:accumulate;stop-color:#000000;stop-opacity:1;opacity:1"
     d="m 5.1660156,3.4160156 c -0.93342,0 -1.5032786,-0.038174 -2.0957031,0.2636719 C 2.6156637,3.9113393 2.2453174,4.2816777 2.0136719,4.7363281 1.7118074,5.3287576 1.75,5.9005644 1.75,6.8339844 v 6.3320316 c 0,0.9334 -0.038206,1.505233 0.2636719,2.097656 0.2316368,0.454633 0.6019726,0.824964 1.0566406,1.05664 0.5923997,0.30175 1.1622831,0.263672 2.0957031,0.263672 h 9.6679684 c 0.9335,0 1.503311,0.03809 2.095703,-0.263672 0.454638,-0.231668 0.825043,-0.601856 1.056641,-1.05664 C 18.288283,14.671229 18.25,14.099416 18.25,13.166016 V 6.8339844 c 0,-0.93342 0.03827,-1.505207 -0.263672,-2.0976563 C 17.754722,4.2815268 17.384306,3.9113313 16.929687,3.6796875 16.33727,3.3778286 15.767484,3.4160156 14.833984,3.4160156 Z m 0,1.5 h 9.6679684 c 0.9335,0 1.295434,0.038168 1.416016,0.099609 0.172581,0.087936 0.312597,0.2299451 0.400391,0.4023437 0.04094,0.080339 0.05045,0.5511254 0.06641,0.9433594 C 16.457727,6.6617927 13.467452,10.083984 10,10.083984 6.5309057,10.083984 3.5396072,6.6568266 3.2832031,6.359375 3.2991871,5.9687772 3.3087515,5.498155 3.3496094,5.4179687 3.4375238,5.2454192 3.5774288,5.1035532 3.75,5.015625 3.8706155,4.9541704 4.2325956,4.9160156 5.1660156,4.9160156 Z M 3.25,8.40625 c 1.269748,1.2962457 3.4421252,3.177734 6.75,3.177734 3.307313,0 5.479977,-1.8813737 6.75,-3.177734 v 4.759766 c 0,0.9334 -0.03816,1.295458 -0.09961,1.416015 -0.0878,0.172416 -0.227829,0.314412 -0.400391,0.402344 -0.120607,0.06144 -0.482516,0.09961 -1.416016,0.09961 H 5.1660156 c -0.93342,0 -1.2953753,-0.03816 -1.4160156,-0.09961 C 3.577448,14.896451 3.4375326,14.754598 3.3496094,14.582031 3.2881674,14.461454 3.25,14.099416 3.25,13.166016 Z"
     id="path1" />
</svg>
