<?xml version="1.0" encoding="UTF-8" standalone="no"?>
<svg
   width="20"
   height="20"
   viewBox="0 0 20 20"
   fill="none"
   version="1.1"
   id="svg1"
   sodipodi:docname="message.svg"
   inkscape:version="1.4.3 (0d15f75, 2025-12-25)"
   xmlns:inkscape="http://www.inkscape.org/namespaces/inkscape"
   xmlns:sodipodi="http://sodipodi.sourceforge.net/DTD/sodipodi-0.dtd"
   xmlns="http://www.w3.org/2000/svg"
   xmlns:svg="http://www.w3.org/2000/svg">
  <defs
     id="defs1" />
  <sodipodi:namedview
     id="namedview1"
     pagecolor="#ffffff"
     bordercolor="#000000"
     borderopacity="0.25"
     inkscape:showpageshadow="2"
     inkscape:pageopacity="0.0"
     inkscape:pagecheckerboard="0"
     inkscape:deskcolor="#d1d1d1"
     inkscape:zoom="41.65"
     inkscape:cx="10.012005"
     inkscape:cy="10"
     inkscape:window-width="1920"
     inkscape:window-height="1051"
     inkscape:window-x="-9"
     inkscape:window-y="-9"
     inkscape:window-maximized="1"
     inkscape:current-layer="svg1" />
  <path
     style="baseline-shift:baseline;display:inline;overflow:visible;vector-effect:none;fill:#0071dc;stroke-linecap:round;stroke-linejoin:round;enable-background:accumulate;stop-color:#000000;stop-opacity:1;opacity:1"
     d="m 10.001953,1.75 c -4.5474419,0 -8.2480467,3.7025309 -8.2480468,8.25 0,1.314797 0.3080839,2.562844 0.8574219,3.667969 0.00844,0.01698 0.064751,0.302756 0.023437,0.675781 -0.041314,0.373025 -0.1447867,0.82937 -0.2675781,1.259766 -0.2455829,0.860791 -0.5566406,1.607421 -0.5566406,1.607421 A 0.750075,0.750075 0 0 0 2.5039063,18.25 h 7.4980467 c 4.547528,0 8.25,-3.702574 8.25,-8.25 0,-4.5474619 -3.702477,-8.25 -8.25,-8.25 z m 0,1.5 c 3.736877,0 6.75,3.0131819 6.75,6.75 0,3.736774 -3.013128,6.75 -6.75,6.75 H 3.5546875 C 3.6618549,16.450157 3.6950997,16.413433 3.8085938,16.015625 3.9456348,15.535283 4.0689395,15.015938 4.125,14.509766 4.1810605,14.003593 4.2066384,13.506071 3.9550781,13 3.5059762,12.096524 3.2539063,11.080403 3.2539063,10 c 0,-3.7368109 3.0112689,-6.75 6.7480467,-6.75 z m -3.3359374,6 a 0.75,0.75 0 0 0 -0.75,0.75 0.75,0.75 0 0 0 0.75,0.75 h 0.00781 a 0.75,0.75 0 0 0 0.75,-0.75 0.75,0.75 0 0 0 -0.75,-0.75 z M 10,9.25 A 0.75,0.75 0 0 0 9.25,10 0.75,0.75 0 0 0 10,10.75 h 0.0078 a 0.75,0.75 0 0 0 0.75,-0.75 0.75,0.75 0 0 0 -0.75,-0.75 z m 3.332031,0 a 0.75,0.75 0 0 0 -0.75,0.75 0.75,0.75 0 0 0 0.75,0.75 h 0.0098 a 0.75,0.75 0 0 0 0.75,-0.75 0.75,0.75 0 0 0 -0.75,-0.75 z"
     id="path1" />
</svg>
