<?xml version="1.0" encoding="UTF-8" standalone="no"?>
<svg
   width="33"
   height="33"
   viewBox="0 0 33 33"
   fill="none"
   version="1.1"
   id="svg1"
   sodipodi:docname="money.svg"
   inkscape:version="1.4.3 (0d15f75, 2025-12-25)"
   xmlns:inkscape="http://www.inkscape.org/namespaces/inkscape"
   xmlns:sodipodi="http://sodipodi.sourceforge.net/DTD/sodipodi-0.dtd"
   xmlns="http://www.w3.org/2000/svg"
   xmlns:svg="http://www.w3.org/2000/svg">
  <defs
     id="defs1" />
  <sodipodi:namedview
     id="namedview1"
     pagecolor="#ffffff"
     bordercolor="#000000"
     borderopacity="0.25"
     inkscape:showpageshadow="2"
     inkscape:pageopacity="0.0"
     inkscape:pagecheckerboard="0"
     inkscape:deskcolor="#d1d1d1"
     inkscape:zoom="25.909091"
     inkscape:cx="16.5"
     inkscape:cy="16.5"
     inkscape:window-width="1920"
     inkscape:window-height="1057"
     inkscape:window-x="-8"
     inkscape:window-y="-8"
     inkscape:window-maximized="1"
     inkscape:current-layer="svg1" />
  <path
     style="baseline-shift:baseline;display:inline;overflow:visible;vector-effect:none;fill:#145fcb;stroke-linecap:round;stroke-linejoin:round;enable-background:accumulate;stop-color:#000000;stop-opacity:1;opacity:1"
     d="M 8.0039063,7.125 C 6.7827403,7.1287969 5.9452869,7.123937 5.1152344,7.546875 4.3862235,7.918319 3.793319,8.5112235 3.421875,9.2402344 2.9989321,10.070281 3.0037969,10.907701 3,12.128906 c -5.075e-4,0.16485 0,0.338285 0,0.521485 v 7.699218 c 0,0.1832 -5.075e-4,0.356635 0,0.521485 0.0038,1.221205 -0.00105,2.058622 0.421875,2.888672 0.3714476,0.728947 0.964415,1.321878 1.6933594,1.693359 0.8040799,0.40958 1.6384576,0.404667 2.7988281,0.408203 a 1.125,1.125 0 0 0 0.039063,0.0059 c 0.021256,6.4e-5 0.029289,0.0077 0.050781,0.0078 0.1648499,5.08e-4 0.3382743,0 0.5214843,0 H 24.474609 c 0.1832,0 0.356635,5.08e-4 0.521485,0 0.02149,-6.6e-5 0.02952,-0.0077 0.05078,-0.0078 a 1.125,1.125 0 0 0 0.03906,-0.0059 c 1.160407,-0.0035 1.994752,0.0014 2.798829,-0.408203 0.728881,-0.371484 1.321875,-0.964478 1.693359,-1.693359 0.42251,-0.829337 0.418117,-1.667479 0.421875,-2.888672 5.15e-4,-0.167353 0,-0.340129 0,-0.521485 v -7.699218 c 0,-0.1832 5.08e-4,-0.356635 0,-0.521485 -0.0038,-1.221275 8.7e-4,-2.058763 -0.421875,-2.8886716 C 29.206644,8.51129 28.613713,7.9183226 27.884766,7.546875 27.054716,7.1239549 26.217299,7.1287969 24.996094,7.125 c -0.16485,-5.075e-4 -0.338285,0 -0.521485,0 H 8.5253906 c -0.18321,0 -0.3566344,-5.075e-4 -0.5214843,0 z m 1.8535156,2.25 H 23.142578 c -0.08017,0.3102304 -0.205078,0.6042337 -0.205078,0.9375 0,2.12678 1.74822,3.875 3.875,3.875 0.33327,0 0.627269,-0.124903 0.9375,-0.205078 v 5.035156 C 27.440067,18.93756 27.145433,18.8125 26.8125,18.8125 c -2.12678,0 -3.875,1.74822 -3.875,3.875 0,0.33327 0.124903,0.627269 0.205078,0.9375 H 9.8574219 C 9.9376025,23.314768 10.0625,23.02078 10.0625,22.6875 c 0,-2.12679 -1.748232,-3.875 -3.875,-3.875 -0.3332663,0 -0.6272696,0.124904 -0.9375,0.205078 v -5.035156 c 0.3102304,0.08017 0.6042337,0.205078 0.9375,0.205078 2.126768,0 3.875,-1.74821 3.875,-3.875 0,-0.3332769 -0.124899,-0.6272685 -0.2050781,-0.9375 z M 7.4140625,9.4316406 C 7.6032093,9.6956861 7.8125,9.9565672 7.8125,10.3125 c 0,0.91081 -0.714208,1.625 -1.625,1.625 -0.3559592,0 -0.6168278,-0.209302 -0.8808594,-0.398437 0.028457,-0.532594 0.049341,-1.136525 0.1210938,-1.277344 0.155856,-0.3058894 0.4030952,-0.5531286 0.7089843,-0.7089846 0.1408287,-0.071757 0.744758,-0.092637 1.2773438,-0.1210938 z m 18.1718745,0 c 0.532597,0.028455 1.136486,0.049325 1.277344,0.1210938 0.305853,0.1558524 0.553065,0.4030287 0.708985,0.7089846 0.07178,0.140913 0.09264,0.744758 0.121093,1.277344 -0.264029,0.18914 -0.52488,0.398437 -0.880859,0.398437 -0.91082,0 -1.625,-0.71418 -1.625,-1.625 0,-0.3559592 0.209302,-0.6168278 0.398437,-0.8808594 z M 16.5,12.625 c -2.12678,0 -3.875,1.74822 -3.875,3.875 0,2.12678 1.74822,3.875 3.875,3.875 2.12678,0 3.875,-1.74822 3.875,-3.875 0,-2.12678 -1.74822,-3.875 -3.875,-3.875 z m 0,2.25 c 0.91082,0 1.625,0.71418 1.625,1.625 0,0.91082 -0.71418,1.625 -1.625,1.625 -0.91082,0 -1.625,-0.71418 -1.625,-1.625 0,-0.91082 0.71418,-1.625 1.625,-1.625 z M 6.1875,21.0625 c 0.910792,0 1.625,0.71419 1.625,1.625 0,0.355953 -0.209286,0.616816 -0.3984375,0.880859 C 6.8814842,23.539903 6.2776415,23.519048 6.1367187,23.447266 5.8307631,23.291346 5.5835868,23.044134 5.4277344,22.738281 5.3559655,22.597423 5.3350956,21.993534 5.3066406,21.460937 5.5706722,21.271802 5.8315408,21.0625 6.1875,21.0625 Z m 20.625,0 c 0.356085,0 0.616773,0.209169 0.880859,0.398437 -0.02854,0.532289 -0.04915,1.136137 -0.121093,1.277344 -0.155916,0.305919 -0.403066,0.553069 -0.708985,0.708985 -0.140952,0.0718 -0.744755,0.09264 -1.277344,0.121093 C 25.396797,23.30433 25.1875,23.043479 25.1875,22.6875 c 0,-0.91082 0.71418,-1.625 1.625,-1.625 z"
     id="path1" />
</svg>
