<?xml version="1.0" encoding="UTF-8" standalone="no"?>
<svg
   width="18"
   height="18"
   viewBox="0 0 18 18"
   fill="none"
   version="1.1"
   id="svg1"
   sodipodi:docname="paperclip.svg"
   inkscape:version="1.4.3 (0d15f75, 2025-12-25)"
   xmlns:inkscape="http://www.inkscape.org/namespaces/inkscape"
   xmlns:sodipodi="http://sodipodi.sourceforge.net/DTD/sodipodi-0.dtd"
   xmlns="http://www.w3.org/2000/svg"
   xmlns:svg="http://www.w3.org/2000/svg">
  <defs
     id="defs1" />
  <sodipodi:namedview
     id="namedview1"
     pagecolor="#ffffff"
     bordercolor="#000000"
     borderopacity="0.25"
     inkscape:showpageshadow="2"
     inkscape:pageopacity="0.0"
     inkscape:pagecheckerboard="0"
     inkscape:deskcolor="#d1d1d1"
     inkscape:zoom="46.277778"
     inkscape:cx="8.9891957"
     inkscape:cy="9"
     inkscape:window-width="1920"
     inkscape:window-height="1051"
     inkscape:window-x="-9"
     inkscape:window-y="-9"
     inkscape:window-maximized="1"
     inkscape:current-layer="svg1" />
  <path
     style="baseline-shift:baseline;display:inline;overflow:visible;vector-effect:none;fill:#145fcb;stroke-linecap:round;stroke-linejoin:round;enable-background:accumulate;stop-color:#000000;stop-opacity:1;opacity:1"
     d="M 11.121094,1.8652344 C 10.287779,1.8652341 9.4556828,2.1810424 8.8242188,2.8125 L 3.6972656,7.9394531 c -1.7510803,1.7510684 -1.7510686,4.6121769 0,6.3632809 1.7510691,1.751117 4.6122032,1.751114 6.3632814,0 l 5.339844,-5.3398434 a 0.75,0.75 0 0 0 0,-1.0605469 0.75,0.75 0 0 0 -1.060547,0 L 9,13.242188 c -1.1778619,1.177886 -3.0643366,1.177883 -4.2421875,0 C 3.5799411,12.064292 3.5799529,10.177852 4.7578125,9 L 9.8847656,3.8730469 c 0.6897114,-0.6897048 1.7849204,-0.689696 2.4746094,0 0.689688,0.6896953 0.689688,1.7849141 0,2.4746093 L 7.2402344,11.466797 c -0.2015485,0.201569 -0.5054698,0.201578 -0.7070313,0 -0.2014753,-0.201455 -0.2015704,-0.505444 0,-0.707031 L 11.199219,6.09375 a 0.75,0.75 0 0 0 0,-1.0605469 0.75,0.75 0 0 0 -1.060547,0 L 5.4726562,9.6992188 c -0.7747495,0.7748132 -0.7748246,2.0533792 0,2.8281252 0.7747586,0.774822 2.0533736,0.774831 2.8281251,0 L 13.419922,7.4082031 c 1.262912,-1.2629247 1.262912,-3.3327784 0,-4.5957031 C 12.788466,2.181038 11.954409,1.8652346 11.121094,1.8652344 Z"
     id="path1" />
</svg>
