<?xml version="1.0" encoding="UTF-8" standalone="no"?>
<svg
   width="20"
   height="20"
   viewBox="0 0 20 20"
   fill="none"
   version="1.1"
   id="svg1"
   sodipodi:docname="printer.svg"
   inkscape:version="1.4.3 (0d15f75, 2025-12-25)"
   xmlns:inkscape="http://www.inkscape.org/namespaces/inkscape"
   xmlns:sodipodi="http://sodipodi.sourceforge.net/DTD/sodipodi-0.dtd"
   xmlns="http://www.w3.org/2000/svg"
   xmlns:svg="http://www.w3.org/2000/svg">
  <defs
     id="defs1" />
  <sodipodi:namedview
     id="namedview1"
     pagecolor="#ffffff"
     bordercolor="#000000"
     borderopacity="0.25"
     inkscape:showpageshadow="2"
     inkscape:pageopacity="0.0"
     inkscape:pagecheckerboard="0"
     inkscape:deskcolor="#d1d1d1"
     inkscape:zoom="41.65"
     inkscape:cx="10.012005"
     inkscape:cy="10"
     inkscape:window-width="1920"
     inkscape:window-height="1051"
     inkscape:window-x="-9"
     inkscape:window-y="-9"
     inkscape:window-maximized="1"
     inkscape:current-layer="svg1" />
  <path
     style="baseline-shift:baseline;display:inline;overflow:visible;vector-effect:none;fill:#0071dc;stroke-linecap:round;stroke-linejoin:round;enable-background:accumulate;stop-color:#000000;stop-opacity:1;opacity:1"
     d="m 7.1660156,1.75 c -0.46671,0 -0.8045754,-0.039162 -1.21875,0.171875 -0.2978675,0.1517642 -0.5396552,0.3955552 -0.6914062,0.6933594 -0.211032,0.4141644 -0.171875,0.75204 -0.171875,1.21875 V 4.5 5.09375 C 4.2137241,5.0914163 3.6395722,5.0575976 3.0703125,5.3476562 2.6156637,5.5793081 2.2453174,5.9476933 2.0136719,6.4023437 1.7118074,6.9947732 1.75,7.56658 1.75,8.5 v 3.833984 c 0,0.9335 -0.038206,1.503281 0.2636719,2.095704 0.2316368,0.454633 0.6018263,0.825034 1.0566406,1.05664 0.5692787,0.290132 1.1434087,0.25624 2.0136719,0.253906 v 0.425782 c 0,0.4667 -0.039067,0.804669 0.171875,1.21875 0.1517451,0.297792 0.3935454,0.541579 0.6914062,0.693359 0.4141448,0.210952 0.75204,0.171875 1.21875,0.171875 h 5.6679684 c 0.4667,0 0.804598,0.03903 1.21875,-0.171875 0.297953,-0.151827 0.539753,-0.395747 0.691407,-0.693359 0.21114,-0.41415 0.171875,-0.75205 0.171875,-1.21875 v -0.425782 c 0.870333,0.0023 1.444399,0.03624 2.013671,-0.253906 0.454785,-0.231598 0.825043,-0.601856 1.056641,-1.05664 C 18.288283,13.837245 18.25,13.267484 18.25,12.333984 V 8.5 c 0,-0.93342 0.03827,-1.505207 -0.263672,-2.0976563 C 17.754722,5.9475424 17.384306,5.5793001 16.929687,5.3476562 16.360434,5.0575846 15.786346,5.0914159 14.916016,5.09375 V 4.5 3.8339844 c 0,-0.46671 0.03935,-0.8045163 -0.171875,-1.21875 C 14.592482,2.3176106 14.350694,2.0736861 14.052734,1.921875 13.638553,1.7108815 13.300684,1.75 12.833984,1.75 Z m 0,1.5 h 5.6679684 c 0.4667,0 0.594692,0.039099 0.53711,0.00977 0.01564,0.00797 0.02897,0.01918 0.03711,0.035156 -0.02943,-0.057714 0.0078,0.072353 0.0078,0.5390625 V 4.5 5.0839844 H 6.5839844 V 4.5 3.8339844 c 0,-0.46671 0.037184,-0.5967069 0.00781,-0.5390625 0.00805,-0.015796 0.021377,-0.02714 0.037109,-0.035156 C 6.5712517,3.2891427 6.6993056,3.25 7.1660156,3.25 Z m -2,3.3339844 h 0.6679688 8.3320316 0.667968 c 0.9335,0 1.295439,0.038167 1.416016,0.099609 0.172581,0.087936 0.312597,0.227992 0.400391,0.4003907 C 16.71185,7.2045751 16.75,7.56658 16.75,8.5 v 3.833984 c 0,0.9335 -0.03816,1.295459 -0.09961,1.416016 -0.0878,0.172416 -0.227975,0.312588 -0.400391,0.400391 -0.113573,0.05788 -0.5159,0.0896 -1.333984,0.09375 v -0.410157 c 0,-0.4667 0.03926,-0.8046 -0.171875,-1.21875 C 14.592487,12.317622 14.350687,12.073702 14.052734,11.921875 13.638582,11.710966 13.300684,11.75 12.833984,11.75 H 7.1660156 c -0.46671,0 -0.8046052,-0.03908 -1.21875,0.171875 -0.2978608,0.15178 -0.5396611,0.395567 -0.6914062,0.693359 -0.210942,0.414081 -0.171875,0.75205 -0.171875,1.21875 v 0.410157 C 4.2659656,14.239991 3.8636042,14.208289 3.75,14.150391 3.5775943,14.062596 3.4375326,13.922567 3.3496094,13.75 3.2881674,13.629423 3.25,13.267484 3.25,12.333984 V 8.5 C 3.25,7.56658 3.2881539,7.2045949 3.3496094,7.0839844 3.4375238,6.9114348 3.5774288,6.7715219 3.75,6.6835937 3.8706105,6.6221383 4.2325956,6.5839844 5.1660156,6.5839844 Z m 0.6679688,1.8320312 a 0.75,0.75 0 0 0 -0.75,0.75 0.75,0.75 0 0 0 0.75,0.75 h 0.00781 a 0.75,0.75 0 0 0 0.75,-0.75 0.75,0.75 0 0 0 -0.75,-0.75 z M 7.1660156,13.25 h 5.6679684 c 0.4667,0 0.594662,0.03907 0.53711,0.0098 0.01565,0.008 0.02896,0.01917 0.03711,0.03516 -0.02934,-0.05755 0.0078,0.07236 0.0078,0.539062 V 15 16.166016 c 0,0.4667 -0.03715,0.596612 -0.0078,0.539062 -0.0081,0.01599 -0.02146,0.02718 -0.03711,0.03516 0.05755,-0.02931 -0.07041,0.0098 -0.53711,0.0098 H 7.1660156 c -0.46671,0 -0.5947341,-0.03912 -0.5371094,-0.0098 -0.015739,-0.008 -0.029054,-0.01935 -0.037109,-0.03516 0.029282,0.05748 -0.00781,-0.07236 -0.00781,-0.539062 V 15 13.833984 c 0,-0.4667 0.037094,-0.596543 0.00781,-0.539062 0.00805,-0.01581 0.02137,-0.02714 0.037109,-0.03516 -0.057625,0.02935 0.070399,-0.0098 0.5371094,-0.0098 z"
     id="path1" />
</svg>
