<svg width="24" height="24" viewBox="0 0 24 24" fill="none" xmlns="http://www.w3.org/2000/svg">
<path fill-rule="evenodd" clip-rule="evenodd" d="M5.78831 14.02C5.83156 14.0333 5.87566 14.0437 5.92031 14.051C6.20324 14.7176 6.48457 15.385 6.76431 16.053C7.26731 17.255 7.77431 18.493 7.88531 18.849C8.02431 19.287 8.17031 19.585 8.33031 19.789C8.41331 19.893 8.50831 19.985 8.62031 20.055C8.67912 20.0906 8.74145 20.1201 8.80631 20.143C9.12631 20.263 9.41831 20.213 9.60131 20.152C9.70876 20.1155 9.81096 20.065 9.90531 20.002L9.91031 20L12.7363 18.238L16.0013 20.74C16.0493 20.7767 16.1013 20.8077 16.1573 20.833C16.5493 21.003 16.9293 21.063 17.2873 21.015C17.6433 20.965 17.9263 20.816 18.1373 20.647C18.3794 20.4515 18.5725 20.2022 18.7013 19.919L18.7103 19.897L18.7133 19.889L18.7153 19.885V19.883L18.7163 19.882C18.7327 19.8386 18.7461 19.7942 18.7563 19.749L21.7363 4.72399C21.7445 4.67573 21.7492 4.62693 21.7503 4.57799C21.7503 4.13799 21.5843 3.71899 21.1953 3.46599C20.8613 3.24899 20.4903 3.23899 20.2553 3.25699C20.0033 3.27699 19.7693 3.33899 19.6123 3.38899C19.5246 3.41731 19.4379 3.44867 19.3523 3.48299L19.3413 3.48799L2.62731 10.044L2.62531 10.045C2.56864 10.0655 2.51291 10.0885 2.45831 10.114C2.32573 10.1735 2.19858 10.2444 2.07831 10.326C1.85131 10.481 1.32831 10.907 1.41731 11.611C1.48731 12.171 1.87131 12.516 2.10631 12.682C2.23431 12.773 2.35631 12.838 2.44631 12.881C2.48631 12.901 2.57231 12.935 2.60931 12.951L2.61931 12.954L5.78831 14.02ZM19.9263 4.86799H19.9243L19.8983 4.87899L3.16431 11.444L3.13831 11.454L3.12831 11.457C3.09768 11.4688 3.06764 11.4822 3.03831 11.497C3.06628 11.5127 3.09497 11.527 3.12431 11.54L6.26631 12.598C6.32179 12.6185 6.37533 12.644 6.42631 12.674L16.8033 6.59899L16.8133 6.59399C16.8538 6.56986 16.8952 6.54718 16.9373 6.52599C17.0093 6.48899 17.1243 6.43499 17.2543 6.39499C17.3443 6.36699 17.6113 6.28799 17.8993 6.38099C18.0523 6.42872 18.1887 6.51873 18.2927 6.64064C18.3968 6.76255 18.4642 6.91139 18.4873 7.06999C18.5246 7.20874 18.5256 7.35472 18.4903 7.49399C18.4203 7.76899 18.2283 7.98299 18.0533 8.14699C17.9033 8.28699 15.9573 10.163 14.0383 12.015L11.4253 14.535L10.9603 14.985L16.8323 19.487C16.9116 19.5201 16.9977 19.5338 17.0833 19.527C17.1265 19.5211 17.167 19.503 17.2003 19.475C17.2408 19.4407 17.2756 19.4002 17.3033 19.355L17.3053 19.354L20.1953 4.78099C20.1044 4.80337 20.0152 4.83211 19.9283 4.86699L19.9263 4.86799ZM11.4653 17.262L10.2933 16.364L10.0093 18.169L11.4653 17.262ZM9.21831 14.582L10.3833 13.457L12.9963 10.935L13.9693 9.99699L7.44931 13.814L7.48431 13.896C7.89552 14.8674 8.30219 15.8408 8.70431 16.816L8.98731 15.016C9.01315 14.8491 9.09454 14.6968 9.21831 14.582Z" fill="#202939"/>
</svg>
