<svg width="104" height="104" viewBox="0 0 104 104" fill="none" xmlns="http://www.w3.org/2000/svg">
<g opacity="0.45">
<path d="M98.2155 62.7814C98.2155 63.779 97.3985 64.5959 96.401 64.5959H33.9079C34.0704 64.3883 34.2284 64.1762 34.3774 63.955C35.0093 63.0387 35.5329 62.0321 35.9392 60.9669H96.3962C97.3937 60.9669 98.2107 61.7839 98.2107 62.7814L98.2155 62.7814ZM23.5756 9.40663H96.4002C97.3977 9.40663 98.2147 8.58964 98.2147 7.59211C98.2147 6.59457 97.3977 5.77759 96.4002 5.77759H23.5756C22.5781 5.77759 21.7611 6.59458 21.7611 7.59211C21.7611 8.58965 22.5781 9.40663 23.5756 9.40663ZM61.5091 67.2371L71.5658 84.6555H80.169L70.1123 67.2371H61.5091ZM47.0385 72.121C47.6208 73.3353 47.8826 74.7525 48.0135 76.4588L48.018 76.4859V76.5129C48.1715 79.2348 48.2256 81.943 48.2166 84.6558H48.4062L58.4628 67.2374H49.8596L47.043 72.1214L47.0385 72.121ZM36.6703 58.3264C37.212 55.3202 36.8193 52.147 35.2214 49.5697C33.127 46.1844 29.5567 44.713 25.6748 44.713C25.553 44.713 25.4311 44.713 25.3092 44.7175L25.3137 12.0508H94.6683V58.3307H36.6748L36.6703 58.3264ZM69.0019 54.3453C74.7525 51.7138 85.4947 51.7679 88.5279 53.1807V22.2566C85.4947 20.8438 74.7518 20.7897 69.0019 23.4212V54.3453ZM57.5099 23.1323L57.7491 23.7146L58.2005 23.8048C59.7351 24.1073 60.8411 25.4524 60.8411 27.0141V30.4174C60.8411 31.9837 59.7397 33.3243 58.2005 33.6312L57.7491 33.7214L57.5099 34.3037L57.7671 34.6829C58.6383 35.9828 58.4668 37.7161 57.3609 38.822L54.9506 41.2323C53.8447 42.3381 52.1115 42.5052 50.8115 41.6385L50.4324 41.3812L49.8501 41.6204L49.7598 42.0718C49.4754 43.5162 48.2747 44.577 46.8303 44.6988V53.1892C49.8636 51.7764 60.6065 51.7223 66.3564 54.3538V23.4296C64.1537 22.4231 61.2152 21.8093 58.2632 21.5159C58.1865 21.9492 58.0195 22.3735 57.7622 22.7571L57.5049 23.1363L57.5099 23.1323ZM37.4142 39.4356L38.9714 38.3929L42.1672 39.7154L42.5283 41.5524C42.5869 41.8503 42.8442 42.0625 43.1467 42.0625H46.55C46.857 42.0625 47.1097 41.8503 47.1684 41.5524L47.5295 39.7154L50.7252 38.3929L52.2825 39.4356C52.5353 39.6071 52.8648 39.571 53.0815 39.3588L55.4918 36.9485C55.7084 36.7319 55.74 36.4024 55.5685 36.1496L54.5258 34.5923L55.8483 31.3966L57.6854 31.0355C57.9833 30.9768 58.1954 30.7195 58.1954 30.4171V27.0137C58.1954 26.7068 57.9833 26.454 57.6854 26.3953L55.8483 26.0342L54.5258 22.8385L55.5685 21.2812C55.74 21.0284 55.7039 20.6989 55.4918 20.4823L53.0815 18.072C52.8648 17.8553 52.5353 17.8237 52.2825 17.9952L50.7252 19.0379L47.5295 17.7154L47.1684 15.8784C47.1097 15.5804 46.8524 15.3683 46.55 15.3683H43.1467C42.8397 15.3683 42.5869 15.5804 42.5283 15.8784L42.1672 17.7154L38.9714 19.0379L37.4142 17.9952C37.1614 17.8237 36.8319 17.8598 36.6152 18.072L34.2049 20.4823C33.9882 20.6989 33.9567 21.0284 34.1282 21.2812L35.1708 22.8385L33.8483 26.0342L32.0113 26.3953C31.7134 26.454 31.5012 26.7113 31.5012 27.0137V30.4171C31.5012 30.724 31.7134 30.9768 32.0113 31.0355L33.8483 31.3966L35.1708 34.5923L34.1282 36.1496C33.9566 36.4024 33.9928 36.7319 34.2049 36.9485L36.6152 39.3588C36.8319 39.5755 37.1614 39.6071 37.4142 39.4356ZM44.8483 35.5582C48.6308 35.5582 51.6957 32.4934 51.6957 28.7108C51.6957 24.9283 48.6309 21.8634 44.8483 21.8634C41.0658 21.8634 38.0009 24.9282 38.0009 28.7108C38.0009 32.4888 41.0657 35.5582 44.8483 35.5582ZM25.6736 66.2512C28.0523 66.2557 30.4446 65.0054 32.2004 62.4551C36.0326 56.8986 34.8545 47.3478 25.6736 47.3478C16.4881 47.3478 15.3099 56.8989 19.1467 62.4551C20.907 65.0053 23.2948 66.2557 25.6736 66.2512ZM42.3432 70.9545C40.7678 70.0292 38.019 69.3025 35.5093 68.6615L30.6976 67.479C29.2125 68.3727 27.5154 68.8963 25.6782 68.8963C23.8411 68.8963 22.1439 68.3772 20.6588 67.479L15.8471 68.6615C13.3374 69.3025 10.5841 70.0337 9.01323 70.9545C6.95952 72.1553 6.22819 73.3875 5.97547 76.6554C5.65951 82.4331 5.76333 87.7999 5.99804 93.3204C6.1154 96.0558 8.36779 98.2179 11.1077 98.2179H12.3716V84.1078C12.3716 83.3765 12.9629 82.7853 13.6941 82.7853C14.4253 82.7853 15.0166 83.3766 15.0166 84.1078V98.2179H36.3625V84.1078C36.3625 83.3765 36.9538 82.7853 37.685 82.7853C38.4163 82.7853 39.0075 83.3766 39.0075 84.1078V98.2179H40.2715C43.0113 98.2179 45.2637 96.0603 45.3811 93.3204C45.6158 87.8001 45.7196 82.4332 45.4036 76.6554C45.1509 73.3875 44.4196 72.1553 42.3659 70.9545H42.3432ZM84.7 46.625C85.4267 46.6972 86.0722 46.1646 86.1399 45.4379C86.2121 44.7112 85.6795 44.0657 84.9529 43.998C81.0755 43.6189 76.8597 43.9258 72.4131 44.9053C71.6999 45.0633 71.2486 45.7674 71.4065 46.4761C71.542 47.0945 72.0881 47.5143 72.693 47.5143C72.7878 47.5143 72.8826 47.5007 72.9773 47.4827C77.1481 46.5619 81.0931 46.273 84.6909 46.6251L84.7 46.625ZM72.6976 31.7211C72.7879 31.7211 72.8781 31.712 72.9684 31.694C77.1527 30.8228 81.0886 30.5926 84.6727 31.0124C85.3949 31.0982 86.0539 30.5746 86.1352 29.8524C86.2209 29.1256 85.7018 28.4712 84.9751 28.3899C81.1113 27.9386 76.891 28.1823 72.4273 29.1121C71.7141 29.2611 71.2537 29.9607 71.4027 30.6739C71.5336 31.2968 72.0797 31.7257 72.6936 31.7257L72.6976 31.7211ZM72.6976 42.1975C72.7879 42.1975 72.8827 42.1885 72.9775 42.1659C77.1527 41.2631 81.0932 40.9923 84.691 41.367C85.4177 41.4437 86.0632 40.9156 86.1399 40.1889C86.2166 39.4622 85.6885 38.8167 84.9619 38.74C81.089 38.3383 76.8687 38.6226 72.4186 39.5841C71.7055 39.7375 71.2541 40.4417 71.4076 41.1549C71.543 41.7733 72.0882 42.1975 72.6976 42.1975ZM72.6976 37.0383C72.7879 37.0383 72.8781 37.0293 72.9729 37.0112C77.1527 36.1265 81.0931 35.8738 84.6819 36.2665C85.4086 36.3432 86.0585 35.8241 86.1398 35.0974C86.221 34.3707 85.6974 33.7207 84.9707 33.6395C81.1024 33.2152 76.8821 33.477 72.4275 34.4249C71.7143 34.5784 71.2585 35.2735 71.4074 35.9912C71.5383 36.6141 72.089 37.0339 72.6984 37.0339L72.6976 37.0383Z" fill="url(#paint0_linear_133_5514)"/>
</g>
<defs>
<linearGradient id="paint0_linear_133_5514" x1="51.9965" y1="5.77759" x2="51.9965" y2="98.2179" gradientUnits="userSpaceOnUse">
<stop stop-color="white"/>
<stop offset="1" stop-color="white" stop-opacity="0"/>
</linearGradient>
</defs>
</svg>
