<svg width="92" height="92" viewBox="0 0 92 92" fill="none" xmlns="http://www.w3.org/2000/svg">
<rect width="92" height="92" rx="8.97561" fill="#F0F6FF"/>
<path fill-rule="evenodd" clip-rule="evenodd" d="M34.3594 52.993L38.8706 61.834L44.6966 58.5266L39.0255 52.9957L34.3594 52.993ZM53.2516 52.993L47.5805 58.5239L53.4065 61.8313L57.9176 52.9963C57.8417 52.9963 57.7657 52.9934 57.6897 52.9934L53.2516 52.993ZM50.9551 49.0837L51.8988 51.8681L46.1342 57.4896L40.355 51.8506L41.0211 49.6008C42.6164 50.5125 44.2643 50.863 46.1079 50.7228C47.8054 50.641 49.4183 50.0917 50.9551 49.0837ZM47.0166 60.2157L53.2925 63.7773C53.7658 64.0636 54.321 63.9 54.5547 63.4442L59.7905 53.1828C65.3944 54.1909 69.6135 59.1198 69.6135 64.917V76.3818C69.6135 78.4562 67.9189 80.1509 65.8445 80.1509L26.1558 80.148C24.0814 80.148 22.3867 78.4534 22.3867 76.3789V64.914C22.3867 59.0238 26.7401 54.0334 32.4641 53.1335L37.7232 63.4383C37.9569 63.8941 38.5121 64.0606 38.9854 63.7714L45.2613 60.2098V70.5527C45.2613 71.0377 45.6528 71.4292 46.1378 71.4292C46.6228 71.4292 47.0144 71.0377 47.0144 70.5527L47.0166 60.2157ZM57.5113 32.0293L46.2567 35.5091C46.0989 35.5558 45.9382 35.5587 45.7892 35.5207L34.26 32.9321V35.2169C34.26 35.9064 33.6815 35.8831 33.3163 36.596C32.6911 37.8086 33.5647 39.3045 34.97 39.3045C35.3411 39.3045 35.6625 39.5382 35.7881 39.8655C37.1613 43.1378 38.7157 45.5307 40.4454 47.0471C42.0232 48.4292 43.8639 49.1479 45.9383 48.9872C45.9676 48.9872 45.9909 48.9843 46.0202 48.9843C47.6885 48.8966 49.2867 48.248 50.8177 47.0296C52.8746 45.3496 54.5692 43.0444 56.2463 39.7808C56.4011 39.4798 56.7079 39.3075 57.0235 39.3075C58.9227 39.3075 59.5888 36.7772 57.9468 35.8364C57.6663 35.6728 57.5056 35.3807 57.5056 35.0768L57.5113 32.0293ZM66.3441 20.1553L46.0001 11.8491L25.6562 20.1553L46.0001 26.7322L66.3441 20.1553ZM58.207 24.6227L57.5846 30.1799L45.9679 33.7736L34.1994 31.1294L33.656 24.5789L45.7371 28.4823C45.9037 28.5349 46.0936 28.5408 46.2747 28.4823L58.207 24.6227ZM28.5807 30.9658C27.9613 30.9658 27.4529 31.4742 27.4529 32.0936V33.2214H29.7085V32.0936C29.7056 31.4771 29.1972 30.9658 28.5807 30.9658ZM29.4514 23.2206V29.3504H27.7042V22.6538L29.4514 23.2206Z" fill="url(#paint0_linear_182_414)"/>
<defs>
<linearGradient id="paint0_linear_182_414" x1="46.0001" y1="80.1509" x2="46.0001" y2="11.8491" gradientUnits="userSpaceOnUse">
<stop stop-color="#0051A2"/>
<stop offset="1" stop-color="#3483F5"/>
</linearGradient>
</defs>
</svg>
