<svg width="92" height="92" viewBox="0 0 92 92" fill="none" xmlns="http://www.w3.org/2000/svg">
<rect width="92" height="92" rx="8" fill="#F0F6FF"/>
<path d="M58.1976 31.2861C57.6673 30.4774 59.0571 29.7798 59.6057 30.5884L61.343 33.2046L66.8474 28.4321C67.5972 27.782 68.7492 28.765 67.9812 29.4151L61.7453 34.8377C61.3795 35.1548 60.7212 35.1073 60.4469 34.6474L58.1976 31.2861ZM58.1976 54.562C57.6673 53.7534 59.0571 53.0557 59.6057 53.8644L61.343 56.4805L66.8474 51.708C67.5972 51.0579 68.7492 52.041 67.9812 52.691L61.7453 58.1136C61.3795 58.4307 60.7212 58.3832 60.4469 57.9234L58.1976 54.562ZM58.1976 42.924C57.6673 42.1154 59.0571 41.4178 59.6057 42.2264L61.343 44.8426L66.8474 40.07C67.5972 39.42 68.7492 40.403 67.9812 41.0531L61.7453 46.4757C61.3795 46.7928 60.7212 46.7452 60.4469 46.2854L58.1976 42.924ZM37.0029 28.0198C33.9306 25.3561 28.6822 27.2588 28.6822 31.0007C28.6822 32.174 29.2309 33.2205 30.1086 33.9974C30.8584 34.6475 31.8459 35.0755 32.9431 35.2024H34.1684C35.2656 35.0755 36.2531 34.6475 37.0029 33.9974C38.9047 32.3484 38.9047 29.6688 37.0029 28.0198ZM48.3409 38.7699C45.3052 36.1379 40.3677 36.1379 37.332 38.7699C34.2781 41.4178 34.3147 45.6988 37.332 48.3149C40.3677 50.9469 45.3052 50.9469 48.3409 48.3149C51.3948 45.667 51.3948 41.4019 48.3409 38.7699ZM34.0404 46.4123C32.4677 42.8131 34.0404 38.8175 37.6612 36.7404C37.1857 36.6611 36.692 36.6135 36.1982 36.6135H30.9316C27.0181 36.6135 23.7996 39.4041 23.7996 42.7972V46.4281H34.0404V46.4123ZM40.258 51.375C39.1059 51.0896 38.0269 50.614 37.0943 49.9798L33.0346 56.0841L34.845 55.3389C35.4119 55.0852 36.0154 55.4341 36.0336 55.9097L36.1434 57.5111L40.258 51.375ZM48.7615 49.8688C47.8471 50.503 46.7865 51.0104 45.6344 51.3275L49.7672 57.5428L49.877 55.9414C49.9135 55.4658 50.4987 55.1169 51.0656 55.3706L52.8943 56.1158L48.7615 49.8688ZM42.8364 35.3927C48.03 35.3927 52.236 39.0394 52.236 43.5424C52.236 45.5878 51.3765 47.4429 49.9501 48.8699L55.5643 57.305C55.9849 57.9075 55.2351 58.5893 54.5402 58.3039L51.4314 57.0355L51.2302 59.937C51.1754 60.6347 50.1147 60.8408 49.7124 60.2383L43.9885 51.6287C43.3119 51.6922 42.617 51.708 41.9404 51.6446L36.2165 60.2383C35.8142 60.8408 34.7536 60.6188 34.717 59.937L34.5158 57.0355L31.407 58.3039C30.6938 58.5893 29.9806 57.9075 30.3647 57.3209L35.8874 49.0126C35.5033 48.6479 35.1559 48.2515 34.8633 47.8234H23.0132C22.5744 47.8234 22.2086 47.5063 22.2086 47.1258V42.7972C22.2086 39.1029 25.2991 35.9793 29.4137 35.3292C26.5061 33.2046 26.3049 29.3676 28.9931 27.0368C31.535 24.8329 35.6496 24.8329 38.1732 27.0368C40.8614 29.3676 40.6603 33.2046 37.7526 35.3292C37.8989 35.3609 38.0452 35.3768 38.1915 35.4085C38.7218 35.5195 39.2339 35.6622 39.7276 35.8683C40.6969 35.5512 41.7392 35.3927 42.8364 35.3927ZM44.9029 41.7507C43.0742 40.1652 39.9288 41.2909 39.9288 43.5265C39.9288 45.778 43.0742 46.8879 44.9029 45.3182C46.0367 44.3352 46.0367 42.7338 44.9029 41.7507ZM42.8364 39.6102C46.8596 39.6102 48.8895 43.8437 46.0367 46.3171C43.1839 48.7906 38.3012 47.0306 38.3012 43.5424C38.3195 41.3702 40.3494 39.6102 42.8364 39.6102ZM52.8212 11.5935H39.1973V18.5541H52.8212V11.5935ZM54.4305 16.3819V19.2676C54.4305 19.6481 54.0647 19.9652 53.6258 19.9652H38.3744C37.9355 19.9652 37.5698 19.6481 37.5698 19.2676V16.3819H26.9633C22.8304 16.3819 19.4473 19.3152 19.4473 22.8985V73.8899C19.4473 77.4732 22.8304 80.4065 26.9633 80.4065H65.037C69.1698 80.4065 72.553 77.4732 72.553 73.8899V22.8985C72.553 19.3152 69.1698 16.3819 65.037 16.3819H54.4305ZM27.5667 65.0267C26.5061 65.0267 26.5061 63.6155 27.5667 63.6155H39.5082C40.5688 63.6155 40.5688 65.0267 39.5082 65.0267H27.5667ZM27.5667 70.4334C26.5061 70.4334 26.5061 69.0381 27.5667 69.0381H65.037C66.0976 69.0381 66.0976 70.4334 65.037 70.4334H27.5667ZM27.5667 75.856C26.5061 75.856 26.5061 74.4607 27.5667 74.4607H65.037C66.0976 74.4607 66.0976 75.856 65.037 75.856H27.5667Z" fill="url(#paint0_linear_182_439)"/>
<defs>
<linearGradient id="paint0_linear_182_439" x1="46.0001" y1="80.4065" x2="46.0001" y2="11.5935" gradientUnits="userSpaceOnUse">
<stop stop-color="#0051A2"/>
<stop offset="1" stop-color="#3483F5"/>
</linearGradient>
</defs>
</svg>
