<svg width="20" height="20" viewBox="0 0 20 20" fill="none" xmlns="http://www.w3.org/2000/svg">
<path d="M14.1667 14.1668H14.175M14.5 11.6668H15C15.7766 11.6668 16.1649 11.6668 16.4711 11.7937C16.8795 11.9629 17.204 12.2873 17.3731 12.6957C17.5 13.002 17.5 13.3903 17.5 14.1668C17.5 14.9434 17.5 15.3317 17.3731 15.638C17.204 16.0463 16.8795 16.3708 16.4711 16.54C16.1649 16.6668 15.7766 16.6668 15 16.6668H5C4.22343 16.6668 3.83515 16.6668 3.52886 16.54C3.12048 16.3708 2.79602 16.0463 2.62687 15.638C2.5 15.3317 2.5 14.9434 2.5 14.1668C2.5 13.3903 2.5 13.002 2.62687 12.6957C2.79602 12.2873 3.12048 11.9629 3.52886 11.7937C3.83515 11.6668 4.22343 11.6668 5 11.6668H5.5M10 12.5002V3.3335M10 12.5002L7.5 10.0002M10 12.5002L12.5 10.0002" stroke="#0071DC" stroke-width="1.5" stroke-linecap="round" stroke-linejoin="round"/>
</svg>
