<svg width="30" height="30" viewBox="0 0 30 30" fill="none" xmlns="http://www.w3.org/2000/svg">
<path d="M11.25 21.25H18.75M11.25 16.25H18.75M11.25 11.25H12.5M16.25 3.75H10.25C8.84987 3.75 8.1498 3.75 7.61502 4.02248C7.14462 4.26217 6.76217 4.64462 6.52248 5.11502C6.25 5.6498 6.25 6.34987 6.25 7.75V22.25C6.25 23.6501 6.25 24.3502 6.52248 24.885C6.76217 25.3554 7.14462 25.7378 7.61502 25.9775C8.1498 26.25 8.84987 26.25 10.25 26.25H19.75C21.1501 26.25 21.8502 26.25 22.385 25.9775C22.8554 25.7378 23.2378 25.3554 23.4775 24.885C23.75 24.3502 23.75 23.6501 23.75 22.25V11.25M16.25 3.75L23.75 11.25M16.25 3.75V9.25C16.25 9.95007 16.25 10.3001 16.3862 10.5675C16.5061 10.8027 16.6973 10.9939 16.9325 11.1138C17.1999 11.25 17.5499 11.25 18.25 11.25H23.75" stroke="white" stroke-width="2" stroke-linecap="round" stroke-linejoin="round"/>
</svg>
