<svg width="72" height="72" viewBox="0 0 72 72" fill="none" xmlns="http://www.w3.org/2000/svg">
<rect x="2.5" y="2.5" width="67" height="67" rx="33.5" fill="#145FCB"/>
<rect x="2.5" y="2.5" width="67" height="67" rx="33.5" stroke="#E6F0FF" stroke-width="5"/>
<path d="M21 36H51M21 36C21 44.2843 27.7157 51 36 51M21 36C21 27.7157 27.7157 21 36 21M51 36C51 44.2843 44.2843 51 36 51M51 36C51 27.7157 44.2843 21 36 21M36 51C23.926 37.8 30.9692 25.5 36 21M36 51C48.074 37.8 41.0308 25.5 36 21" stroke="white" stroke-width="2" stroke-linecap="round" stroke-linejoin="round"/>
</svg>
