<svg width="112" height="112" viewBox="0 0 112 112" fill="none" xmlns="http://www.w3.org/2000/svg">
<rect width="112.004" height="111.945" rx="12" fill="white" fill-opacity="0.1"/>
<rect x="0.5" y="0.5" width="111.004" height="110.945" rx="11.5" stroke="white" stroke-opacity="0.2"/>
<path d="M19.328 58.9683C19.0507 58.9683 18.7772 58.9878 18.5116 59.0269V46.4999C18.5116 44.664 20.0077 43.1718 21.8397 43.1718H31.2928C32.5155 43.1718 33.5662 43.7773 34.1756 44.8359L35.6522 47.3906H59.5932C61.4291 47.3906 62.9213 48.8867 62.9213 50.7187V54.332C62.6557 54.2929 62.3822 54.2734 62.1049 54.2734H58.1557V52.5312C58.1557 52.2187 57.9018 51.9648 57.5893 51.9648L23.8313 51.9609C23.5188 51.9609 23.2649 52.2148 23.2649 52.5273V58.9648H19.3274L19.328 58.9683ZM65.433 70.6833V59.8863C65.433 58.0504 63.9369 56.5582 62.1049 56.5582H50.9919C49.7692 56.5582 48.7185 57.1637 48.1091 58.2223L46.3591 61.2535H19.3281C17.4922 61.2535 16 62.7496 16 64.5816V84.7456C16 86.5815 17.4961 88.0737 19.3281 88.0737H53.1371V77.0577C53.1371 73.546 56.0082 70.6749 59.5199 70.6749H65.434L65.433 70.6833ZM81.761 77.0661V91.8471C81.761 94.101 79.9172 95.9448 77.6633 95.9448H59.5153C57.2614 95.9448 55.4176 94.101 55.4176 91.8471V77.0661C55.4176 74.8122 57.2614 72.9684 59.5153 72.9684H77.6633C79.9172 72.9684 81.761 74.8122 81.761 77.0661ZM69.839 84.4567L74.5382 80.7067C74.8312 80.8356 75.1554 80.902 75.4952 80.902C76.8311 80.902 77.9132 79.82 77.9132 78.484C77.9132 77.1481 76.8312 76.066 75.4952 76.066C74.1593 76.066 73.0772 77.148 73.0772 78.484C73.0772 78.6325 73.0929 78.7809 73.1163 78.9254L67.6163 83.316H63.8194C63.4131 82.5543 62.6085 82.0387 61.6866 82.0387C60.3507 82.0387 59.2686 83.1207 59.2686 84.4567C59.2686 85.7927 60.3506 86.8747 61.6866 86.8747C62.6085 86.8747 63.4132 86.3591 63.8194 85.5974H67.6163L73.1163 89.988C73.089 90.1325 73.0772 90.2771 73.0772 90.4294C73.0772 91.7653 74.1592 92.8474 75.4952 92.8474C76.8311 92.8474 77.9132 91.7654 77.9132 90.4294C77.9132 89.0935 76.8312 88.0114 75.4952 88.0114C75.1554 88.0114 74.8312 88.0817 74.5382 88.2067L69.839 84.4567ZM27.546 34.8787V20.0977C27.546 17.8438 29.3898 16 31.6437 16H49.7917C52.0456 16 53.8894 17.8438 53.8894 20.0977V34.8787C53.8894 37.1326 52.0456 38.9764 49.7917 38.9764H31.6437C29.3898 38.9764 27.546 37.1326 27.546 34.8787ZM36.5812 32.074C36.5812 32.5506 36.8195 32.9607 37.2296 33.199C37.6437 33.4373 38.1164 33.4373 38.5304 33.199L46.4757 28.6092C46.8898 28.3709 47.1242 27.9608 47.1242 27.4842C47.1242 27.0076 46.8859 26.5975 46.4757 26.3592L38.5304 21.7694C38.1164 21.5311 37.6437 21.5311 37.2296 21.7694C36.8156 22.0077 36.5812 22.4178 36.5812 22.8944V32.074ZM75.0152 36.5896L66.1441 29.3162V44.1252C66.1441 44.2111 66.148 44.2971 66.1597 44.3791L75.0152 36.5896ZM81.4371 38.3162L95.3081 26.9412C95.0854 26.7459 94.8198 26.6014 94.5308 26.5154H67.6168C67.3277 26.5975 67.0621 26.7459 66.8394 26.9412L80.7104 38.3162C80.9174 38.4881 81.2262 38.4881 81.4371 38.3162ZM87.1324 36.5896L95.9879 44.3787C95.9996 44.2967 96.0035 44.2107 96.0035 44.1248V29.3158L87.1324 36.5896ZM82.8824 40.074C82.3512 40.5115 81.7105 40.7302 81.0738 40.7302C80.4371 40.7302 79.8004 40.5115 79.2652 40.074L76.8043 38.0545L67.691 46.0701H94.453L85.3397 38.0545L82.8788 40.074H82.8824Z" fill="white"/>
</svg>
