<svg width="111" height="113" viewBox="0 0 111 113" fill="none" xmlns="http://www.w3.org/2000/svg">
<rect width="110.77" height="112.01" rx="12" fill="white" fill-opacity="0.1"/>
<rect x="0.5" y="0.5" width="109.77" height="111.01" rx="11.5" stroke="white" stroke-opacity="0.2"/>
<path fill-rule="evenodd" clip-rule="evenodd" d="M82.5733 29.1916C84.8194 29.1916 87.0264 31.2619 87.0264 33.551V54.352C86.9678 54.3598 86.9092 54.3716 86.8506 54.3794C85.6162 54.5903 84.4873 54.1255 83.7608 53.1021C83.4561 52.6724 83.1319 52.3013 82.7882 51.9888V32.1448C82.7882 30.8362 82.0147 29.7073 80.8976 29.1878H82.5734L82.5733 29.1916ZM64.6713 63.0586H29.8553L29.7264 61.8945C29.2459 57.5234 25.7733 54.0507 21.4022 53.5703L20.2381 53.4414V29.8594L21.4022 29.7305C25.7733 29.25 29.246 25.7774 29.7264 21.4063L29.8553 20.2422H71.0623C72.242 20.2422 73.2771 20.875 73.8514 21.8125V20.457C73.8514 18.2109 71.7811 16 69.492 16L16 16.0117V67.3007H61.477C61.7543 65.9569 62.5317 64.8437 63.8325 63.9218C64.1763 63.6757 64.4614 63.3867 64.6723 63.0624L64.6713 63.0586ZM62.5229 33.0666C63.0581 33.0666 63.4995 32.6291 63.4995 32.0901V27.3049C63.4995 26.7697 63.062 26.3283 62.5229 26.3283H40.5029C39.9677 26.3283 39.5263 26.7658 39.5263 27.3049V32.0901C39.5263 32.6252 39.9638 33.0666 40.5029 33.0666H62.5229ZM39.5269 55.8436C38.898 55.8436 38.3863 56.3553 38.3863 56.9842C38.3863 57.617 38.898 58.1248 39.5269 58.1248H59.0149C59.6438 58.1248 60.1555 57.6131 60.1555 56.9842C60.1555 56.3514 59.6438 55.8436 59.0149 55.8436H39.5269ZM77.6479 44.5386C77.6479 43.9097 77.1362 43.398 76.5073 43.398L26.5193 43.3941C25.8904 43.3941 25.3787 43.9058 25.3787 44.5347C25.3787 45.1675 25.8904 45.6753 26.5193 45.6753H76.5113C77.1402 45.6753 77.6519 45.1636 77.6519 44.5347L77.6479 44.5386ZM31.0819 38.3159C31.0819 38.9448 31.5936 39.4565 32.2225 39.4565H70.8005C71.4294 39.4565 71.9411 38.9448 71.9411 38.3159C71.9411 37.6831 71.4294 37.1753 70.8005 37.1753L32.2265 37.1714C31.5976 37.1714 31.0859 37.6831 31.0859 38.312L31.0819 38.3159ZM73.1639 50.7649C73.1639 50.136 72.6522 49.6243 72.0233 49.6243L26.5193 49.6165C25.8904 49.6165 25.3787 50.1282 25.3787 50.7571C25.3787 51.3899 25.8904 51.8977 26.5193 51.8977H72.0273C72.6562 51.8977 73.1679 51.386 73.1679 50.7571L73.1639 50.7649ZM76.1287 26.9129H82.5701C83.3982 26.9129 84.2068 27.0848 84.9646 27.3934L75.6482 18.077C75.9568 18.8348 76.1287 19.6434 76.1287 20.4715L76.1287 26.9129ZM86.8517 82.5729C85.6173 82.362 84.4884 82.8346 83.7619 83.8502C83.2111 84.6237 82.5822 85.233 81.8517 85.651L85.5665 96.01L88.8751 92.0217L94.0704 92.4827L89.3516 82.5257C88.5743 82.7171 87.7383 82.721 86.8477 82.5725L86.8517 82.5729ZM74.6487 83.8502C74.051 83.0104 73.1721 82.5221 72.137 82.5221C71.9456 82.5221 71.7503 82.5377 71.5628 82.5729C70.6604 82.7252 69.8167 82.7174 69.0276 82.5182L64.3206 92.4557L69.5159 91.9948L72.8245 95.9831L76.5354 85.6351C75.8127 85.2171 75.1916 84.6159 74.6487 83.8502ZM81.9065 82.5299C81.1526 83.5885 80.3479 84.0416 79.2073 84.0416C78.0667 84.0416 77.262 83.5924 76.512 82.5299C75.4651 81.0572 73.8792 80.2408 72.137 80.2408C71.8206 80.2408 71.5042 80.2682 71.18 80.3229C69.8988 80.5416 69.0081 80.2877 68.2073 79.483C67.4026 78.6783 67.1526 77.7916 67.3674 76.5103C67.7268 74.4087 66.8987 72.4126 65.1604 71.1783C64.1018 70.4283 63.6487 69.6197 63.6487 68.483C63.6487 67.3463 64.1019 66.5377 65.1604 65.7877C66.8987 64.5533 67.7268 62.5611 67.3674 60.4557C67.1487 59.1745 67.4026 58.2877 68.2073 57.483C69.012 56.6783 69.9026 56.4283 71.18 56.6432C73.2816 56.9986 75.2777 56.1744 76.512 54.4323C77.262 53.3737 78.0706 52.9206 79.2073 52.9206C80.344 52.9206 81.1526 53.3737 81.9065 54.4323C83.1409 56.1706 85.1331 56.9987 87.2385 56.6432C88.5197 56.4244 89.4104 56.6744 90.2112 57.483C91.0159 58.2877 91.2659 59.1783 91.051 60.4557C90.6955 62.5612 91.5198 64.5534 93.258 65.7877C94.3166 66.5416 94.7697 67.3463 94.7697 68.483C94.7697 69.6197 94.3166 70.4283 93.258 71.1783C91.5197 72.4127 90.6916 74.4088 91.051 76.5103C91.2698 77.7876 91.0159 78.6783 90.2112 79.4869C89.4065 80.2916 88.5159 80.5416 87.2385 80.3268C85.1369 79.9713 83.1408 80.7955 81.9065 82.5338L81.9065 82.5299ZM87.2815 68.4789C87.2815 64.0336 83.6526 60.4047 79.2073 60.4047C74.762 60.4047 71.1331 64.0336 71.1331 68.4789C71.1331 72.9242 74.762 76.5531 79.2073 76.5531C83.6526 76.5531 87.2815 72.9242 87.2815 68.4789ZM81.5901 65.3617L77.8596 69.0922L77.008 67.6195C76.6916 67.0765 75.9963 66.889 75.4533 67.2055C74.9104 67.5219 74.7229 68.2172 75.0393 68.7602L76.6331 71.5219C77.0081 72.1664 77.8987 72.2875 78.4261 71.7562L83.2073 66.975C83.6526 66.5297 83.6526 65.807 83.2073 65.3617C82.762 64.9164 82.0393 64.9164 81.594 65.3617L81.5901 65.3617Z" fill="white"/>
</svg>
