<svg width="54" height="54" viewBox="0 0 54 54" fill="none" xmlns="http://www.w3.org/2000/svg">
<rect width="54" height="54" rx="8" fill="#F4F8FD"/>
<path d="M27.0054 10.5C20.1168 10.5 18.1021 10.5071 17.7105 10.5396C16.2969 10.6571 15.4172 10.8798 14.4589 11.3571C13.7203 11.7239 13.1378 12.1491 12.563 12.7452C11.5161 13.8323 10.8816 15.1696 10.6519 16.7594C10.5402 17.5311 10.5077 17.6885 10.5011 21.6306C10.4986 22.9446 10.5011 24.6739 10.5011 26.9935C10.5011 33.8784 10.5087 35.8916 10.5417 36.2825C10.6559 37.6585 10.8717 38.5242 11.3285 39.4711C12.2016 41.2837 13.869 42.6445 15.8334 43.1522C16.5136 43.3274 17.2649 43.4238 18.2293 43.4695C18.6379 43.4873 22.8027 43.5 26.9701 43.5C31.1375 43.5 35.3048 43.4949 35.7033 43.4746C36.82 43.4221 37.4685 43.335 38.1855 43.1497C39.1595 42.8998 40.0673 42.4403 40.8453 41.8032C41.6234 41.1661 42.2531 40.3667 42.6904 39.461C43.1383 38.5369 43.3655 37.6382 43.4683 36.3341C43.4906 36.0497 43.5 31.5164 43.5 26.9892C43.5 22.4612 43.4898 17.9363 43.4675 17.652C43.3635 16.3268 43.1363 15.4357 42.6739 14.4938C42.2945 13.7228 41.8732 13.1471 41.2615 12.5584C40.1702 11.5155 38.8352 10.8808 37.2441 10.6513C36.4733 10.5399 36.3198 10.5069 32.3758 10.5H27.0054Z" fill="url(#paint0_radial_267_20350)"/>
<path d="M27.0054 10.5C20.1168 10.5 18.1021 10.5071 17.7105 10.5396C16.2969 10.6571 15.4172 10.8798 14.4589 11.3571C13.7203 11.7239 13.1378 12.1491 12.563 12.7452C11.5161 13.8323 10.8816 15.1696 10.6519 16.7594C10.5402 17.5311 10.5077 17.6885 10.5011 21.6306C10.4986 22.9446 10.5011 24.6739 10.5011 26.9935C10.5011 33.8784 10.5087 35.8916 10.5417 36.2825C10.6559 37.6585 10.8717 38.5242 11.3285 39.4711C12.2016 41.2837 13.869 42.6445 15.8334 43.1522C16.5136 43.3274 17.2649 43.4238 18.2293 43.4695C18.6379 43.4873 22.8027 43.5 26.9701 43.5C31.1375 43.5 35.3048 43.4949 35.7033 43.4746C36.82 43.4221 37.4685 43.335 38.1855 43.1497C39.1595 42.8998 40.0673 42.4403 40.8453 41.8032C41.6234 41.1661 42.2531 40.3667 42.6904 39.461C43.1383 38.5369 43.3655 37.6382 43.4683 36.3341C43.4906 36.0497 43.5 31.5164 43.5 26.9892C43.5 22.4612 43.4898 17.9363 43.4675 17.652C43.3635 16.3268 43.1363 15.4357 42.6739 14.4938C42.2945 13.7228 41.8732 13.1471 41.2615 12.5584C40.1702 11.5155 38.8352 10.8808 37.2441 10.6513C36.4733 10.5399 36.3198 10.5069 32.3758 10.5H27.0054Z" fill="url(#paint1_radial_267_20350)"/>
<path d="M26.9975 14.8154C23.689 14.8154 23.2738 14.8299 21.9744 14.8891C20.6775 14.9485 19.7922 15.1538 19.0176 15.4552C18.2164 15.7664 17.5367 16.1828 16.8596 16.8603C16.1819 17.5377 15.7657 18.2175 15.4535 19.0187C15.1515 19.7938 14.9459 20.6795 14.8875 21.9763C14.8297 23.2761 14.8145 23.6917 14.8145 27.0011C14.8145 30.3105 14.8292 30.7246 14.8881 32.0244C14.9477 33.3216 15.153 34.2071 15.454 34.9819C15.7654 35.7834 16.1817 36.4632 16.8591 37.1405C17.5359 37.8184 18.2156 38.2357 19.0163 38.547C19.7914 38.8483 20.6769 39.0537 21.9736 39.1131C23.273 39.1723 23.688 39.1867 26.9963 39.1867C30.305 39.1867 30.719 39.1723 32.0184 39.1131C33.3153 39.0537 34.2016 38.8483 34.9767 38.547C35.7777 38.2357 36.4564 37.8184 37.1332 37.1405C37.8109 36.4632 38.2271 35.7834 38.5393 34.9822C38.8388 34.2071 39.0443 33.3214 39.1052 32.0246C39.1636 30.7248 39.1788 30.3105 39.1788 27.0011C39.1788 23.6917 39.1636 23.2763 39.1052 21.9765C39.0443 20.6793 38.8388 19.7938 38.5393 19.019C38.2271 18.2175 37.8109 17.5377 37.1332 16.8603C36.4556 16.1825 35.7779 15.7662 34.9759 15.4552C34.1993 15.1538 33.3136 14.9485 32.0167 14.8891C30.7172 14.8299 30.3035 14.8154 26.994 14.8154H26.9975ZM25.9047 17.0114C26.229 17.0109 26.591 17.0114 26.9975 17.0114C30.2502 17.0114 30.6357 17.0231 31.9202 17.0815C33.108 17.1358 33.7526 17.3343 34.1821 17.5011C34.7506 17.722 35.1559 17.986 35.582 18.4125C36.0084 18.839 36.2723 19.2452 36.4937 19.8138C36.6604 20.2429 36.8591 20.8877 36.9132 22.0758C36.9716 23.3604 36.9843 23.7462 36.9843 26.9983C36.9843 30.2503 36.9716 30.6362 36.9132 31.9208C36.8589 33.1089 36.6604 33.7537 36.4937 34.1827C36.2729 34.7514 36.0084 35.1563 35.582 35.5826C35.1556 36.0091 34.7508 36.2731 34.1821 36.4939C33.7531 36.6615 33.108 36.8595 31.9202 36.9138C30.636 36.9722 30.2502 36.9849 26.9975 36.9849C23.7446 36.9849 23.3591 36.9722 22.0749 36.9138C20.8871 36.859 20.2424 36.6605 19.8128 36.4937C19.2443 36.2728 18.8382 36.0088 18.4118 35.5823C17.9854 35.1558 17.7215 34.7506 17.5001 34.1817C17.3334 33.7527 17.1347 33.1079 17.0806 31.9198C17.0222 30.6352 17.0106 30.2493 17.0106 26.9952C17.0106 23.7412 17.0222 23.3573 17.0806 22.0727C17.1349 20.8846 17.3334 20.2398 17.5001 19.8103C17.721 19.2416 17.9854 18.8354 18.4118 18.4089C18.8382 17.9824 19.2443 17.7184 19.8128 17.497C20.2422 17.3295 20.8871 17.1315 22.0749 17.0769C23.1987 17.0261 23.6342 17.0109 25.9047 17.0083V17.0114ZM33.5004 19.0347C33.2112 19.0347 32.9285 19.1205 32.6881 19.2812C32.4477 19.4419 32.2603 19.6703 32.1497 19.9375C32.0391 20.2047 32.0102 20.4988 32.0666 20.7824C32.1231 21.0661 32.2623 21.3267 32.4668 21.5312C32.6713 21.7356 32.9319 21.8749 33.2155 21.9312C33.4991 21.9876 33.793 21.9586 34.0602 21.8478C34.3273 21.7371 34.5555 21.5496 34.7161 21.309C34.8767 21.0685 34.9623 20.7857 34.9622 20.4965C34.9622 19.6892 34.3074 19.0342 33.5004 19.0342V19.0347ZM26.9975 20.7432C23.5426 20.7432 20.7414 23.5452 20.7414 27.0011C20.7414 30.457 23.5426 33.2576 26.9975 33.2576C30.4525 33.2576 33.2529 30.457 33.2529 27.0011C33.2529 23.5452 30.4522 20.7432 26.9973 20.7432H26.9975ZM26.9975 22.9392C29.2401 22.9392 31.0583 24.7576 31.0583 27.0011C31.0583 29.2443 29.2401 31.063 26.9975 31.063C24.7547 31.063 22.9368 29.2443 22.9368 27.0011C22.9368 24.7576 24.7547 22.9392 26.9975 22.9392Z" fill="white"/>
<defs>
<radialGradient id="paint0_radial_267_20350" cx="0" cy="0" r="1" gradientUnits="userSpaceOnUse" gradientTransform="translate(19.2657 46.0417) rotate(-90) scale(32.7054 30.4186)">
<stop stop-color="#FFDD55"/>
<stop offset="0.1" stop-color="#FFDD55"/>
<stop offset="0.5" stop-color="#FF543E"/>
<stop offset="1" stop-color="#C837AB"/>
</radialGradient>
<radialGradient id="paint1_radial_267_20350" cx="0" cy="0" r="1" gradientTransform="matrix(2.86947 14.3351 -59.0886 11.8345 4.97233 12.8773)" gradientUnits="userSpaceOnUse">
<stop stop-color="#3771C8"/>
<stop offset="0.128" stop-color="#3771C8"/>
<stop offset="1" stop-color="#6600FF" stop-opacity="0"/>
</radialGradient>
</defs>
</svg>
