<svg width="72" height="72" viewBox="0 0 72 72" fill="none" xmlns="http://www.w3.org/2000/svg">
<rect x="2.5" y="2.5" width="67" height="67" rx="33.5" fill="#145FCB"/>
<rect x="2.5" y="2.5" width="67" height="67" rx="33.5" stroke="#E6F0FF" stroke-width="5"/>
<path d="M52.6668 29.3333H49.3335M49.3335 29.3333H47.6668C44.3335 26.0029 39.3335 22.6663 36.0002 25.9999M49.3335 29.3333V42.6666M36.0002 25.9999L30.9994 31.0027C30.8672 31.135 30.801 31.2011 30.7478 31.2597C29.5918 32.5315 29.5923 34.4738 30.7489 35.745C30.8022 35.8035 30.8685 35.8698 31.0007 36.0019C31.1329 36.1341 31.1991 36.2002 31.2576 36.2534C32.5292 37.4089 34.4708 37.4086 35.742 36.2527C35.8005 36.1995 35.8667 36.1333 35.9989 36.0011L37.6662 34.3338M36.0002 25.9999C32.6668 22.6663 27.6668 26.003 24.3335 29.3334H22.6668M19.3335 29.3334H22.6668M22.6668 29.3334V42.6666M49.3335 42.6666V47.6666H52.6668M49.3335 42.6666H44.6194M41.0002 37.6666L43.5002 40.1666C43.6328 40.2993 43.6993 40.3658 43.7527 40.4245C44.9084 41.6959 44.9084 43.6374 43.7527 44.9087C43.6993 44.9675 43.6328 45.0339 43.5002 45.1666C43.3675 45.2993 43.301 45.3658 43.2423 45.4192C41.9709 46.5748 40.0294 46.5748 38.7581 45.4192C38.6993 45.3658 38.6328 45.2993 38.5002 45.1666L37.6668 44.3333C36.7581 45.242 36.3037 45.6964 35.8135 45.9393C34.881 46.4014 33.786 46.4014 32.8534 45.9393C32.3633 45.6964 31.9089 45.242 31.0002 44.3333C29.8516 45.8647 27.4929 45.6521 26.6368 43.9398L26.0002 42.6666H22.6668M22.6668 42.6666V47.6666H19.3335" stroke="white" stroke-width="2" stroke-linecap="round" stroke-linejoin="round"/>
</svg>
