<svg width="30" height="30" viewBox="0 0 30 30" fill="none" xmlns="http://www.w3.org/2000/svg">
<path d="M10 6.25006C8.76456 6.25103 8.11698 6.26672 7.61502 6.52248C7.14462 6.76217 6.76217 7.14462 6.52248 7.61502C6.25 8.1498 6.25 8.84987 6.25 10.25V22.25C6.25 23.6501 6.25 24.3502 6.52248 24.885C6.76217 25.3554 7.14462 25.7378 7.61502 25.9775C8.1498 26.25 8.84987 26.25 10.25 26.25H19.75C21.1501 26.25 21.8502 26.25 22.385 25.9775C22.8554 25.7378 23.2378 25.3554 23.4775 24.885C23.75 24.3502 23.75 23.6501 23.75 22.25V10.25C23.75 8.84987 23.75 8.1498 23.4775 7.61502C23.2378 7.14462 22.8554 6.76217 22.385 6.52248C21.883 6.26672 21.2354 6.25103 20 6.25006M10 6.25006V8.75H20V6.25006M10 6.25006V5.88388C10 5.31794 10.2248 4.77518 10.625 4.375C11.0252 3.97482 11.5679 3.75 12.1339 3.75H17.8661C18.4321 3.75 18.9748 3.97482 19.375 4.375C19.7752 4.77518 20 5.31794 20 5.88388V6.25006M18.75 15H15M18.75 20H15M11.25 15H11.2625M11.25 20H11.2625" stroke="white" stroke-width="2" stroke-linecap="round" stroke-linejoin="round"/>
</svg>
