<svg width="30" height="30" viewBox="0 0 30 30" fill="none" xmlns="http://www.w3.org/2000/svg">
<path d="M7.27916 7.50046C7.79787 7.95854 8.125 8.62857 8.125 9.375C8.125 10.7557 7.00571 11.875 5.625 11.875C4.87857 11.875 4.20854 11.5479 3.75046 11.0292M7.27916 7.50046C7.4268 7.5 7.58345 7.5 7.75 7.5H22.25C22.4166 7.5 22.5732 7.5 22.7208 7.50046M7.27916 7.50046C6.18565 7.50386 5.58619 7.53241 5.11502 7.77248C4.64462 8.01217 4.26217 8.39462 4.02248 8.86502C3.78241 9.33619 3.75386 9.93565 3.75046 11.0292M3.75046 11.0292C3.75 11.1768 3.75 11.3334 3.75 11.5V18.5C3.75 18.6666 3.75 18.8232 3.75046 18.9708M3.75046 18.9708C4.20854 18.4521 4.87857 18.125 5.625 18.125C7.00571 18.125 8.125 19.2443 8.125 20.625C8.125 21.3714 7.79787 22.0415 7.27916 22.4995M3.75046 18.9708C3.75386 20.0643 3.78241 20.6638 4.02248 21.135C4.26217 21.6054 4.64462 21.9878 5.11502 22.2275C5.58619 22.4676 6.18565 22.4961 7.27916 22.4995M7.27916 22.4995C7.4268 22.5 7.58345 22.5 7.75 22.5H22.25C22.4166 22.5 22.5732 22.5 22.7208 22.4995M26.25 18.9714C25.7919 18.4523 25.1217 18.125 24.375 18.125C22.9943 18.125 21.875 19.2443 21.875 20.625C21.875 21.3714 22.2021 22.0415 22.7208 22.4995M26.25 18.9714C26.2505 18.8236 26.25 18.6667 26.25 18.5V11.5C26.25 11.3334 26.25 11.1768 26.2495 11.0292M26.25 18.9714C26.2466 20.0645 26.2175 20.6639 25.9775 21.135C25.7378 21.6054 25.3554 21.9878 24.885 22.2275C24.4138 22.4676 23.8143 22.4961 22.7208 22.4995M26.2495 11.0292C25.7915 11.5479 25.1214 11.875 24.375 11.875C22.9943 11.875 21.875 10.7557 21.875 9.375C21.875 8.62857 22.2021 7.95854 22.7208 7.50046M26.2495 11.0292C26.2461 9.93565 26.2176 9.33619 25.9775 8.86502C25.7378 8.39462 25.3554 8.01217 24.885 7.77248C24.4138 7.53241 23.8143 7.50386 22.7208 7.50046M17.5 15C17.5 16.3807 16.3807 17.5 15 17.5C13.6193 17.5 12.5 16.3807 12.5 15C12.5 13.6193 13.6193 12.5 15 12.5C16.3807 12.5 17.5 13.6193 17.5 15Z" stroke="white" stroke-width="2" stroke-linecap="round" stroke-linejoin="round"/>
</svg>
