<svg width="36" height="36" viewBox="0 0 36 36" fill="none" xmlns="http://www.w3.org/2000/svg">
<rect width="36" height="36" rx="8" fill="#F4F8FD"/>
<path d="M9 11.5C9 20.0604 15.9396 27 24.5 27C24.8862 27 25.2691 26.9859 25.6483 26.9581C26.0834 26.9262 26.3009 26.9103 26.499 26.7963C26.663 26.7019 26.8185 26.5345 26.9007 26.364C27 26.1582 27 25.9181 27 25.438V22.6207C27 22.2169 27 22.015 26.9335 21.842C26.8749 21.6891 26.7795 21.553 26.6559 21.4456C26.516 21.324 26.3262 21.255 25.9468 21.117L22.74 19.9509C22.2985 19.7904 22.0777 19.7101 21.8683 19.7237C21.6836 19.7357 21.5059 19.7988 21.3549 19.9058C21.1837 20.0271 21.0629 20.2285 20.8212 20.6314L20 22C17.3501 20.7999 15.2019 18.6489 14 16L15.3686 15.1788C15.7715 14.9371 15.9729 14.8163 16.0942 14.6451C16.2012 14.4941 16.2643 14.3164 16.2763 14.1317C16.2899 13.9223 16.2096 13.7015 16.0491 13.26L14.883 10.0532C14.745 9.67376 14.676 9.48403 14.5544 9.3441C14.447 9.22049 14.3109 9.12515 14.158 9.06645C13.985 9 13.7831 9 13.3793 9H10.562C10.0819 9 9.84181 9 9.63598 9.09925C9.4655 9.18146 9.29814 9.33701 9.2037 9.50103C9.08968 9.69907 9.07375 9.91662 9.04189 10.3517C9.01413 10.7309 9 11.1138 9 11.5Z" stroke="#145FCB" stroke-width="1.5" stroke-linecap="round" stroke-linejoin="round"/>
</svg>
