<svg width="88" height="23" viewBox="0 0 88 23" fill="none" xmlns="http://www.w3.org/2000/svg">
<g opacity="0.999997" clip-path="url(#clip0_148_1768)">
<g clip-path="url(#clip1_148_1768)">
<g clip-path="url(#clip2_148_1768)">
<path fill-rule="evenodd" clip-rule="evenodd" d="M0.046875 4.79688V17.9818L4.43646 22.3766V9.19184H13.2155L8.82582 4.79688H0.046875Z" fill="white"/>
<path fill-rule="evenodd" clip-rule="evenodd" d="M4.43652 13.5873H13.2155V0.402344L17.605 4.79731V17.9822H8.82589L4.43652 13.5873Z" fill="white"/>
<path d="M85.9224 17.9811L85.7345 16.9453H85.64C85.4521 17.1839 85.2265 17.391 84.963 17.567C84.361 17.9686 83.6462 18.1697 82.8186 18.1697C81.5645 18.1697 80.5139 17.7083 79.6673 16.7854C78.8208 15.8623 78.3975 14.66 78.3975 13.1785C78.3975 11.6969 78.8208 10.4945 79.6673 9.57158C80.5139 8.64866 81.5645 8.1873 82.8186 8.1873C83.5707 8.1873 84.2606 8.39439 84.888 8.80877C85.1509 8.98456 85.3706 9.18557 85.5461 9.41146H85.64V4.79688H87.9917V17.9811H85.9224ZM81.4263 15.2596C81.8776 15.7556 82.4671 16.0036 83.1949 16.0036C83.9221 16.0036 84.5117 15.7556 84.963 15.2596C85.4143 14.7636 85.64 14.0699 85.64 13.1783C85.64 12.2869 85.4143 11.593 84.963 11.0972C84.5117 10.6012 83.9221 10.3531 83.1949 10.3531C82.4671 10.3531 81.8776 10.6012 81.4263 11.0972C80.9749 11.5932 80.7493 12.2869 80.7493 13.1783C80.7493 14.0699 80.9749 14.7636 81.4263 15.2596Z" fill="white"/>
<path d="M67.6758 17.9835V8.37772H69.8385L70.0269 9.31945H70.1209C70.2715 9.13112 70.4848 8.94264 70.7606 8.75431C71.3372 8.37772 72.0024 8.18945 72.7544 8.18945C73.8455 8.18945 74.7455 8.56312 75.4543 9.31004C76.1627 10.0572 76.5168 11.0334 76.5168 12.2387V17.9833H74.1656V12.427C74.1656 11.8118 73.9745 11.3127 73.5918 10.9296C73.2095 10.5465 72.7107 10.3551 72.0963 10.3551C71.4819 10.3551 70.9831 10.5465 70.6008 10.9296C70.2181 11.3127 70.0269 11.8116 70.0269 12.427V17.9833L67.6758 17.9835Z" fill="white"/>
<path d="M62.9721 15.1582H65.4177C65.3551 15.3968 65.2325 15.6636 65.0511 15.9588C64.8692 16.254 64.6122 16.5805 64.2796 16.9383C63.9471 17.2961 63.4925 17.5913 62.9159 17.8234C62.3388 18.0558 61.6996 18.1719 60.9972 18.1719C59.58 18.1719 58.4106 17.7042 57.4885 16.7686C56.5669 15.8331 56.1064 14.6372 56.1064 13.1807C56.1064 11.7242 56.5669 10.5282 57.4885 9.59274C58.4106 8.65728 59.58 8.18945 60.9972 8.18945C62.3139 8.18945 63.4266 8.6508 64.3363 9.57372C65.2449 10.4967 65.7 11.6361 65.7 12.9921C65.7 13.1053 65.6812 13.3314 65.6434 13.6702L65.6056 13.9341H58.4571C58.5575 14.6119 58.8398 15.1582 59.3036 15.5726C59.7679 15.987 60.332 16.1943 60.9966 16.1943C61.4982 16.1943 61.9247 16.0845 62.2762 15.8647C62.6271 15.6451 62.8592 15.4093 62.9721 15.1582ZM58.4576 12.3331H63.3483C63.2355 11.6928 62.9753 11.1718 62.5677 10.77C62.1606 10.368 61.6364 10.167 60.9972 10.167C60.3196 10.167 59.7646 10.3647 59.3322 10.7604C58.8998 11.1559 58.6082 11.6803 58.4576 12.3331Z" fill="white"/>
<path d="M46.202 9.59269C47.1235 8.65728 48.2929 8.18945 49.7101 8.18945C51.1273 8.18945 52.2966 8.65728 53.2182 9.59269C54.1403 10.5282 54.6014 11.7241 54.6014 13.1807C54.6014 14.6372 54.1403 15.8331 53.2182 16.7686C52.2966 17.704 51.1273 18.1719 49.7101 18.1719C48.2929 18.1719 47.1235 17.7042 46.202 16.7686C45.2799 15.8331 44.8193 14.6372 44.8193 13.1807C44.8193 11.7241 45.2799 10.5282 46.202 9.59269ZM47.9042 15.2148C48.3933 15.7421 48.9953 16.0058 49.7101 16.0058C50.4249 16.0058 51.0268 15.7421 51.516 15.2148C52.0051 14.6875 52.2497 14.0094 52.2497 13.1807C52.2497 12.3519 52.0051 11.6739 51.516 11.1465C51.0268 10.6192 50.4249 10.3555 49.7101 10.3555C48.9953 10.3555 48.3933 10.6194 47.9042 11.1465C47.4156 11.6739 47.1705 12.3519 47.1705 13.1807C47.1705 14.0094 47.4151 14.6875 47.9042 15.2148Z" fill="white"/>
<path d="M38.4229 17.9808V8.375H40.3983L40.5863 9.22257H40.6804C40.7934 9.07187 40.9311 8.93387 41.0942 8.80819C41.483 8.51949 41.9094 8.375 42.3733 8.375H44.2545V10.6352H42.5615C41.3701 10.6352 40.7743 11.2316 40.7743 12.4244V17.9808H38.4229Z" fill="white"/>
<path d="M26.3838 17.9811V4.79688H32.3094C33.551 4.79688 34.5512 5.19849 35.3097 6.00222C36.0684 6.80595 36.4479 7.87936 36.4479 9.22293C36.4479 10.5665 36.0687 11.6402 35.3097 12.4437C34.551 13.2471 33.5508 13.649 32.3094 13.649H28.8293V17.9809L26.3838 17.9811ZM28.8293 11.2949H32.2154C32.7548 11.2949 33.1874 11.1126 33.5133 10.7485C33.8394 10.3845 34.0024 9.87595 34.0024 9.22293C34.0024 8.56995 33.8394 8.06141 33.5133 7.69736C33.1872 7.33303 32.7548 7.15103 32.2154 7.15103H28.8293V11.2949Z" fill="white"/>
</g>
</g>
</g>
<defs>
<clipPath id="clip0_148_1768">
<rect width="88" height="22" fill="white" transform="translate(0 0.400391)"/>
</clipPath>
<clipPath id="clip1_148_1768">
<rect width="88" height="22" fill="white" transform="translate(0 0.400391)"/>
</clipPath>
<clipPath id="clip2_148_1768">
<rect width="88" height="22" fill="white" transform="translate(0 0.400391)"/>
</clipPath>
</defs>
</svg>
