<svg width="54" height="54" viewBox="0 0 54 54" fill="none" xmlns="http://www.w3.org/2000/svg">
<rect width="54" height="54" rx="8" fill="#F4F8FD"/>
<g clip-path="url(#clip0_267_20344)">
<path d="M27 43.5C36.1127 43.5 43.5 36.1127 43.5 27C43.5 17.8873 36.1127 10.5 27 10.5C17.8873 10.5 10.5 17.8873 10.5 27C10.5 36.1127 17.8873 43.5 27 43.5Z" fill="url(#paint0_linear_267_20344)"/>
<path fill-rule="evenodd" clip-rule="evenodd" d="M17.9682 26.8254C22.7783 24.7298 25.9857 23.3482 27.5906 22.6806C32.1728 20.7747 33.125 20.4437 33.7456 20.4327C33.8821 20.4303 34.1873 20.4642 34.3849 20.6246C34.5519 20.76 34.5978 20.943 34.6198 21.0714C34.6418 21.1998 34.6691 21.4924 34.6474 21.721C34.3991 24.33 33.3246 30.6614 32.778 33.5836C32.5467 34.8201 32.0913 35.2347 31.6504 35.2752C30.6922 35.3634 29.9646 34.642 29.0365 34.0337C27.5843 33.0817 26.7639 32.4891 25.3543 31.5602C23.7252 30.4867 24.7813 29.8966 25.7097 28.9324C25.9526 28.68 30.1744 24.84 30.2561 24.4916C30.2664 24.4481 30.2758 24.2857 30.1794 24.1999C30.0829 24.1142 29.9405 24.1435 29.8377 24.1668C29.6921 24.1999 27.3722 25.7332 22.8779 28.767C22.2194 29.2191 21.623 29.4395 21.0886 29.4279C20.4994 29.4152 19.3662 29.0948 18.5237 28.821C17.4904 28.4851 16.6692 28.3075 16.7407 27.737C16.7779 27.4399 17.1871 27.136 17.9682 26.8254Z" fill="white"/>
</g>
<defs>
<linearGradient id="paint0_linear_267_20344" x1="27" y1="10.5" x2="27" y2="43.2553" gradientUnits="userSpaceOnUse">
<stop stop-color="#2AABEE"/>
<stop offset="1" stop-color="#229ED9"/>
</linearGradient>
<clipPath id="clip0_267_20344">
<rect width="33" height="33" fill="white" transform="translate(10.5 10.5)"/>
</clipPath>
</defs>
</svg>
