<svg width="30" height="30" viewBox="0 0 30 30" fill="none" xmlns="http://www.w3.org/2000/svg">
<path d="M16.25 25V22.5C16.25 19.0482 13.4518 16.25 10 16.25C6.54822 16.25 3.75 19.0482 3.75 22.5V25H16.25ZM16.25 25H26.25V23.75C26.25 20.0681 23.4518 17.5 20 17.5C18.2333 17.5 16.6379 18.2819 15.5012 19.5389M13.75 8.75C13.75 10.8211 12.0711 12.5 10 12.5C7.92893 12.5 6.25 10.8211 6.25 8.75C6.25 6.67893 7.92893 5 10 5C12.0711 5 13.75 6.67893 13.75 8.75ZM22.5 11.25C22.5 12.6307 21.3807 13.75 20 13.75C18.6193 13.75 17.5 12.6307 17.5 11.25C17.5 9.86929 18.6193 8.75 20 8.75C21.3807 8.75 22.5 9.86929 22.5 11.25Z" stroke="white" stroke-width="2" stroke-linecap="round" stroke-linejoin="round"/>
</svg>
