<svg width="20" height="20" viewBox="0 0 20 20" fill="none" xmlns="http://www.w3.org/2000/svg">
<g clip-path="url(#clip0_444_11317)">
<path d="M0 13.3333H26.3636V20H0V13.3333Z" fill="#1EB53A"/>
<path d="M0 0H26.3636V6.66667H0V0Z" fill="#0099B5"/>
<path d="M0 6.39999H26.3636V13.6H0V6.39999Z" fill="#CE1126"/>
<path d="M0 6.79999H26.3636V13.2H0V6.79999Z" fill="white"/>
<path d="M5.5363 5.59999C6.84672 5.59999 7.90903 4.52547 7.90903 3.19999C7.90903 1.8745 6.84672 0.799988 5.5363 0.799988C4.22588 0.799988 3.16357 1.8745 3.16357 3.19999C3.16357 4.52547 4.22588 5.59999 5.5363 5.59999Z" fill="white"/>
<path d="M6.32707 5.59999C7.63749 5.59999 8.6998 4.52547 8.6998 3.19999C8.6998 1.8745 7.63749 0.799988 6.32707 0.799988C5.01665 0.799988 3.95435 1.8745 3.95435 3.19999C3.95435 4.52547 5.01665 5.59999 6.32707 5.59999Z" fill="#0099B5"/>
<path d="M10.7553 4.64084L10.605 5.09684L10.8343 5.17684" fill="white"/>
<path d="M10.7552 4.64084L10.9055 5.09684L10.6762 5.17684" fill="white"/>
<path d="M11.2067 4.97193L10.7314 4.9696L10.7264 5.21422" fill="white"/>
<path d="M11.2069 4.97219L10.8237 5.25784L10.6781 5.06292" fill="white"/>
<path d="M10.3036 4.97216L10.6868 5.25781L10.8324 5.06289" fill="white"/>
<path d="M10.3038 4.97193L10.7791 4.9696L10.7841 5.21422" fill="white"/>
<path d="M11.0334 5.50875L10.8907 5.05057L10.6582 5.12266" fill="white"/>
<path d="M11.0337 5.5087L10.6472 5.22971L10.7868 5.0283" fill="white"/>
<path d="M10.4758 5.50917L10.8625 5.22913L10.7238 5.02832" fill="white"/>
<path d="M10.4761 5.50906L10.62 5.05074L10.8518 5.12203" fill="white"/>
<path d="M10.7553 2.72086L10.605 3.17686L10.8343 3.25686" fill="white"/>
<path d="M10.7552 2.72086L10.9055 3.17686L10.6762 3.25686" fill="white"/>
<path d="M11.2067 3.05195L10.7314 3.04962L10.7264 3.29424" fill="white"/>
<path d="M11.2069 3.05224L10.8237 3.33788L10.6781 3.14297" fill="white"/>
<path d="M10.3036 3.05218L10.6868 3.33782L10.8324 3.14291" fill="white"/>
<path d="M10.3038 3.05195L10.7791 3.04962L10.7841 3.29424" fill="white"/>
<path d="M11.0334 3.58874L10.8907 3.13056L10.6582 3.20264" fill="white"/>
<path d="M11.0337 3.58869L10.6472 3.3097L10.7868 3.10828" fill="white"/>
<path d="M10.4758 3.58915L10.8625 3.30912L10.7238 3.10831" fill="white"/>
<path d="M10.4761 3.58905L10.62 3.13073L10.8518 3.20202" fill="white"/>
<path d="M10.7553 0.800842L10.605 1.25684L10.8343 1.33684" fill="white"/>
<path d="M10.7552 0.800842L10.9055 1.25684L10.6762 1.33684" fill="white"/>
<path d="M11.2067 1.13193L10.7314 1.1296L10.7264 1.37422" fill="white"/>
<path d="M11.2069 1.1322L10.8237 1.41784L10.6781 1.22292" fill="white"/>
<path d="M10.3036 1.13217L10.6868 1.41781L10.8324 1.22289" fill="white"/>
<path d="M10.3038 1.13196L10.7791 1.12963L10.7841 1.37425" fill="white"/>
<path d="M11.0334 1.66873L10.8907 1.21054L10.6582 1.28263" fill="white"/>
<path d="M11.0337 1.66868L10.6472 1.38968L10.7868 1.18827" fill="white"/>
<path d="M10.4758 1.66914L10.8625 1.38911L10.7238 1.1883" fill="white"/>
<path d="M10.4761 1.66903L10.62 1.21072L10.8518 1.282" fill="white"/>
<path d="M12.6537 4.64084L12.5034 5.09684L12.7328 5.17684" fill="white"/>
<path d="M12.6537 4.64084L12.804 5.09684L12.5746 5.17684" fill="white"/>
<path d="M13.1051 4.97193L12.6298 4.9696L12.6248 5.21422" fill="white"/>
<path d="M13.1053 4.97219L12.7221 5.25784L12.5765 5.06292" fill="white"/>
<path d="M12.2018 4.97216L12.585 5.25781L12.7306 5.06289" fill="white"/>
<path d="M12.202 4.97193L12.6773 4.9696L12.6823 5.21422" fill="white"/>
<path d="M12.9321 5.509L12.7893 5.05081L12.5569 5.1229" fill="white"/>
<path d="M12.9322 5.50895L12.5457 5.22996L12.6852 5.02854" fill="white"/>
<path d="M12.3743 5.50938L12.7609 5.22935L12.6222 5.02854" fill="white"/>
<path d="M12.3743 5.50927L12.5182 5.05096L12.75 5.12224" fill="white"/>
<path d="M12.6537 2.72086L12.5034 3.17686L12.7328 3.25686" fill="white"/>
<path d="M12.6537 2.72086L12.804 3.17686L12.5746 3.25686" fill="white"/>
<path d="M13.1051 3.05195L12.6298 3.04962L12.6248 3.29424" fill="white"/>
<path d="M13.1053 3.05224L12.7221 3.33788L12.5765 3.14297" fill="white"/>
<path d="M12.2018 3.05218L12.585 3.33782L12.7306 3.14291" fill="white"/>
<path d="M12.202 3.05195L12.6773 3.04962L12.6823 3.29424" fill="white"/>
<path d="M12.9321 3.58899L12.7893 3.1308L12.5569 3.20289" fill="white"/>
<path d="M12.9322 3.58893L12.5457 3.30994L12.6852 3.10853" fill="white"/>
<path d="M12.3743 3.58937L12.7609 3.30933L12.6222 3.10852" fill="white"/>
<path d="M12.3743 3.58926L12.5182 3.13094L12.75 3.20223" fill="white"/>
<path d="M12.6537 0.800842L12.5034 1.25684L12.7328 1.33684" fill="white"/>
<path d="M12.6537 0.800842L12.804 1.25684L12.5746 1.33684" fill="white"/>
<path d="M13.1051 1.13193L12.6298 1.1296L12.6248 1.37422" fill="white"/>
<path d="M13.1053 1.1322L12.7221 1.41784L12.5765 1.22292" fill="white"/>
<path d="M12.2018 1.13217L12.585 1.41781L12.7306 1.22289" fill="white"/>
<path d="M12.202 1.13193L12.6773 1.1296L12.6823 1.37422" fill="white"/>
<path d="M12.9321 1.66897L12.7893 1.21079L12.5569 1.28287" fill="white"/>
<path d="M12.9322 1.66892L12.5457 1.38993L12.6852 1.18852" fill="white"/>
<path d="M12.3743 1.66935L12.7609 1.38932L12.6222 1.18851" fill="white"/>
<path d="M12.3743 1.66925L12.5182 1.21093L12.75 1.28222" fill="white"/>
<path d="M14.5519 4.64084L14.4016 5.09684L14.631 5.17684" fill="white"/>
<path d="M14.5519 4.64084L14.7021 5.09684L14.4728 5.17684" fill="white"/>
<path d="M15.0036 4.97193L14.5283 4.9696L14.5233 5.21422" fill="white"/>
<path d="M15.0037 4.97219L14.6206 5.25784L14.475 5.06292" fill="white"/>
<path d="M14.1 4.97216L14.4832 5.25781L14.6288 5.06289" fill="white"/>
<path d="M14.1004 4.97193L14.5757 4.9696L14.5807 5.21422" fill="white"/>
<path d="M14.8303 5.509L14.6875 5.05081L14.4551 5.1229" fill="white"/>
<path d="M14.8306 5.50895L14.4441 5.22996L14.5837 5.02854" fill="white"/>
<path d="M14.2725 5.50938L14.6591 5.22935L14.5204 5.02854" fill="white"/>
<path d="M14.2727 5.50927L14.4166 5.05096L14.6484 5.12224" fill="white"/>
<path d="M14.5519 2.72086L14.4016 3.17686L14.631 3.25686" fill="white"/>
<path d="M14.5519 2.72086L14.7021 3.17686L14.4728 3.25686" fill="white"/>
<path d="M15.0036 3.05195L14.5283 3.04962L14.5233 3.29424" fill="white"/>
<path d="M15.0037 3.05224L14.6206 3.33788L14.475 3.14297" fill="white"/>
<path d="M14.1 3.05218L14.4832 3.33782L14.6288 3.14291" fill="white"/>
<path d="M14.1004 3.05195L14.5757 3.04962L14.5807 3.29424" fill="white"/>
<path d="M14.8303 3.58899L14.6875 3.1308L14.4551 3.20289" fill="white"/>
<path d="M14.8306 3.58893L14.4441 3.30994L14.5837 3.10853" fill="white"/>
<path d="M14.2725 3.58937L14.6591 3.30933L14.5204 3.10852" fill="white"/>
<path d="M14.2727 3.58926L14.4166 3.13094L14.6484 3.20223" fill="white"/>
<path d="M14.5519 0.800842L14.4016 1.25684L14.631 1.33684" fill="white"/>
<path d="M14.5519 0.800842L14.7021 1.25684L14.4728 1.33684" fill="white"/>
<path d="M15.0036 1.13193L14.5283 1.1296L14.5233 1.37422" fill="white"/>
<path d="M15.0037 1.1322L14.6206 1.41784L14.475 1.22292" fill="white"/>
<path d="M14.1 1.13217L14.4832 1.41781L14.6288 1.22289" fill="white"/>
<path d="M14.1004 1.13193L14.5757 1.1296L14.5807 1.37422" fill="white"/>
<path d="M14.8303 1.66897L14.6875 1.21079L14.4551 1.28287" fill="white"/>
<path d="M14.8306 1.66892L14.4441 1.38993L14.5837 1.18852" fill="white"/>
<path d="M14.2725 1.66935L14.6591 1.38932L14.5204 1.18851" fill="white"/>
<path d="M14.2727 1.66925L14.4166 1.21093L14.6484 1.28222" fill="white"/>
<path d="M6.95911 4.64084L6.80884 5.09684L7.0382 5.17684" fill="white"/>
<path d="M6.9591 4.64084L7.10938 5.09684L6.88001 5.17684" fill="white"/>
<path d="M7.41081 4.97193L6.93551 4.9696L6.9305 5.21422" fill="white"/>
<path d="M7.41097 4.97219L7.02779 5.25784L6.88218 5.06292" fill="white"/>
<path d="M6.50724 4.97216L6.89042 5.25781L7.03603 5.06289" fill="white"/>
<path d="M6.50741 4.97193L6.98271 4.9696L6.98771 5.21422" fill="white"/>
<path d="M7.23752 5.509L7.09476 5.05081L6.86235 5.1229" fill="white"/>
<path d="M7.23758 5.50895L6.8511 5.22996L6.99067 5.02854" fill="white"/>
<path d="M6.67992 5.50938L7.06657 5.22935L6.9279 5.02854" fill="white"/>
<path d="M6.67994 5.50927L6.82388 5.05096L7.05563 5.12224" fill="white"/>
<path d="M8.8573 4.64084L8.70703 5.09684L8.93639 5.17684" fill="white"/>
<path d="M8.8573 4.64084L9.00757 5.09684L8.7782 5.17684" fill="white"/>
<path d="M9.30876 4.97193L8.83345 4.9696L8.82845 5.21422" fill="white"/>
<path d="M9.30892 4.97219L8.92574 5.25784L8.78013 5.06292" fill="white"/>
<path d="M8.40544 4.97216L8.78862 5.25781L8.93423 5.06289" fill="white"/>
<path d="M8.4056 4.97193L8.8809 4.9696L8.8859 5.21422" fill="white"/>
<path d="M9.13571 5.509L8.99295 5.05081L8.76054 5.1229" fill="white"/>
<path d="M9.13577 5.50895L8.7493 5.22996L8.88886 5.02854" fill="white"/>
<path d="M8.57787 5.50938L8.96452 5.22935L8.82585 5.02854" fill="white"/>
<path d="M8.57764 5.50927L8.72158 5.05096L8.95333 5.12224" fill="white"/>
<path d="M8.8573 2.72086L8.70703 3.17686L8.93639 3.25686" fill="white"/>
<path d="M8.8573 2.72086L9.00757 3.17686L8.7782 3.25686" fill="white"/>
<path d="M9.30876 3.05195L8.83345 3.04962L8.82845 3.29424" fill="white"/>
<path d="M9.30892 3.05224L8.92574 3.33788L8.78013 3.14297" fill="white"/>
<path d="M8.40544 3.05218L8.78862 3.33782L8.93423 3.14291" fill="white"/>
<path d="M8.4056 3.05195L8.8809 3.04962L8.8859 3.29424" fill="white"/>
<path d="M9.13571 3.58899L8.99295 3.1308L8.76054 3.20289" fill="white"/>
<path d="M9.13577 3.58893L8.7493 3.30994L8.88886 3.10853" fill="white"/>
<path d="M8.57787 3.58937L8.96452 3.30933L8.82585 3.10852" fill="white"/>
<path d="M8.57764 3.58926L8.72158 3.13094L8.95333 3.20223" fill="white"/>
</g>
<defs>
<clipPath id="clip0_444_11317">
<rect width="20" height="20" rx="10" fill="white"/>
</clipPath>
</defs>
</svg>
