<svg width="54" height="54" viewBox="0 0 54 54" fill="none" xmlns="http://www.w3.org/2000/svg">
<rect width="54" height="54" rx="8" fill="#F4F8FD"/>
<g clip-path="url(#clip0_267_20362)">
<path d="M42.8413 19.005C42.6547 18.3029 42.287 17.6622 41.775 17.1469C41.263 16.6316 40.6246 16.2598 39.9237 16.0688C37.3438 15.375 27.0312 15.375 27.0312 15.375C27.0312 15.375 16.7188 15.375 14.1388 16.0688C13.4379 16.2598 12.7995 16.6316 12.2875 17.1469C11.7755 17.6622 11.4078 18.3029 11.2213 19.005C10.5313 21.5962 10.5312 27 10.5312 27C10.5312 27 10.5313 32.4037 11.2213 34.995C11.4078 35.6971 11.7755 36.3378 12.2875 36.8531C12.7995 37.3684 13.4379 37.7402 14.1388 37.9312C16.7188 38.625 27.0312 38.625 27.0312 38.625C27.0312 38.625 37.3438 38.625 39.9237 37.9312C40.6246 37.7402 41.263 37.3684 41.775 36.8531C42.287 36.3378 42.6547 35.6971 42.8413 34.995C43.5313 32.4037 43.5312 27 43.5312 27C43.5312 27 43.5313 21.5962 42.8413 19.005Z" fill="#FF0302"/>
<path d="M23.6582 31.9065V22.0928L32.2832 26.9996L23.6582 31.9065Z" fill="#FEFEFE"/>
</g>
<defs>
<clipPath id="clip0_267_20362">
<rect width="33" height="33" fill="white" transform="translate(10.5 10.5)"/>
</clipPath>
</defs>
</svg>
