<?xml version="1.0" encoding="UTF-8" standalone="no"?>
<svg
   width="24"
   height="24"
   viewBox="0 0 24 24"
   fill="none"
   version="1.1"
   id="svg1"
   sodipodi:docname="arrow-right.svg"
   inkscape:version="1.4.3 (0d15f75, 2025-12-25)"
   xmlns:inkscape="http://www.inkscape.org/namespaces/inkscape"
   xmlns:sodipodi="http://sodipodi.sourceforge.net/DTD/sodipodi-0.dtd"
   xmlns="http://www.w3.org/2000/svg"
   xmlns:svg="http://www.w3.org/2000/svg">
  <defs
     id="defs1" />
  <sodipodi:namedview
     id="namedview1"
     pagecolor="#ffffff"
     bordercolor="#000000"
     borderopacity="0.25"
     inkscape:showpageshadow="2"
     inkscape:pageopacity="0.0"
     inkscape:pagecheckerboard="0"
     inkscape:deskcolor="#d1d1d1"
     inkscape:zoom="35.625"
     inkscape:cx="12"
     inkscape:cy="12"
     inkscape:window-width="1920"
     inkscape:window-height="1057"
     inkscape:window-x="-8"
     inkscape:window-y="-8"
     inkscape:window-maximized="1"
     inkscape:current-layer="svg1" />
  <path
     style="baseline-shift:baseline;display:inline;overflow:visible;opacity:1;vector-effect:none;fill:#000000;stroke-width:0.988279;stroke-linecap:round;stroke-linejoin:round;enable-background:accumulate;stop-color:#000000;stop-opacity:1"
     d="M 8.1309966,5.8035088 A 0.98128631,0.99532158 0 0 0 7.1497102,6.7988303 0.98128631,0.99532158 0 0 0 8.1309966,7.7941519 H 14.593687 L 6.4559101,16.048323 a 0.98128631,0.99532158 0 0 0 0,1.407446 0.98128631,0.99532158 0 0 0 1.3876002,0 L 15.981287,9.2015988 v 6.5551252 a 0.98128631,0.99532158 0 0 0 0.981286,0.995322 0.98128631,0.99532158 0 0 0 0.981287,-0.995322 V 6.7988303 a 0.98128631,0.99532158 0 0 0 -0.287487,-0.7037235 0.98128631,0.99532158 0 0 0 -0.406313,0 0.98128631,0.99532158 0 0 0 -0.287487,-0.291598 z"
     id="path1" />
</svg>
