<?xml version="1.0" encoding="UTF-8" standalone="no"?>
<svg
   width="44"
   height="44"
   viewBox="0 0 44 44"
   fill="none"
   version="1.1"
   id="svg2"
   sodipodi:docname="location.svg"
   inkscape:version="1.4.3 (0d15f75, 2025-12-25)"
   xmlns:inkscape="http://www.inkscape.org/namespaces/inkscape"
   xmlns:sodipodi="http://sodipodi.sourceforge.net/DTD/sodipodi-0.dtd"
   xmlns="http://www.w3.org/2000/svg"
   xmlns:svg="http://www.w3.org/2000/svg">
  <defs
     id="defs2" />
  <sodipodi:namedview
     id="namedview2"
     pagecolor="#ffffff"
     bordercolor="#000000"
     borderopacity="0.25"
     inkscape:showpageshadow="2"
     inkscape:pageopacity="0.0"
     inkscape:pagecheckerboard="0"
     inkscape:deskcolor="#d1d1d1"
     inkscape:zoom="19.431818"
     inkscape:cx="22"
     inkscape:cy="22"
     inkscape:window-width="1920"
     inkscape:window-height="1057"
     inkscape:window-x="-8"
     inkscape:window-y="-8"
     inkscape:window-maximized="1"
     inkscape:current-layer="svg2" />
  <path
     style="baseline-shift:baseline;display:inline;overflow:visible;vector-effect:none;fill:#145fcb;stroke-linecap:round;stroke-linejoin:round;enable-background:accumulate;stop-color:#000000;stop-opacity:1;opacity:1"
     d="M 22,4 C 14.078489,4 7.6660156,10.620885 7.6660156,18.699219 c 0,4.085187 1.8007251,7.706541 4.3105474,11.058593 2.509821,3.352053 5.757131,6.505846 8.947265,9.78711 a 1.50015,1.50015 0 0 0 2.152344,0 c 3.19008,-3.28126 6.437445,-6.435059 8.947265,-9.78711 2.509821,-3.35205 4.310547,-6.973402 4.310547,-11.058593 C 36.333984,10.620879 29.921422,4 22,4 Z m 0,3 c 6.253778,0 11.333984,5.197159 11.333984,11.699219 0,3.205009 -1.408257,6.184366 -3.710937,9.259765 C 27.584265,30.681928 24.835568,33.449358 22,36.345703 19.164399,33.449361 16.415734,30.681927 14.376953,27.958984 12.074275,24.883587 10.666016,21.904231 10.666016,18.699219 10.666016,12.197152 15.746111,7 22,7 Z"
     id="path1" />
  <path
     style="baseline-shift:baseline;display:inline;overflow:visible;vector-effect:none;fill:#145fcb;stroke-linecap:round;stroke-linejoin:round;enable-background:accumulate;stop-color:#000000;stop-opacity:1;opacity:1"
     d="m 22,11.333984 c -3.848273,0 -7,3.151834 -7,7 0,3.84824 3.15176,7 7,7 3.848167,0 7,-3.151727 7,-7 0,-3.848199 -3.1518,-7 -7,-7 z m 0,3 c 2.2268,0 4,1.7732 4,4 0,2.226927 -1.773167,4 -4,4 -2.22696,0 -4,-1.77304 -4,-4 0,-2.226833 1.773073,-4 4,-4 z"
     id="path2" />
</svg>
