<?xml version="1.0" encoding="UTF-8" standalone="no"?>
<svg
   width="24"
   height="24"
   viewBox="0 0 24 24"
   fill="none"
   version="1.1"
   id="svg2"
   sodipodi:docname="youtube.svg"
   inkscape:version="1.4.3 (0d15f75, 2025-12-25)"
   xmlns:inkscape="http://www.inkscape.org/namespaces/inkscape"
   xmlns:sodipodi="http://sodipodi.sourceforge.net/DTD/sodipodi-0.dtd"
   xmlns="http://www.w3.org/2000/svg"
   xmlns:svg="http://www.w3.org/2000/svg">
  <defs
     id="defs2" />
  <sodipodi:namedview
     id="namedview2"
     pagecolor="#ffffff"
     bordercolor="#000000"
     borderopacity="0.25"
     inkscape:showpageshadow="2"
     inkscape:pageopacity="0.0"
     inkscape:pagecheckerboard="0"
     inkscape:deskcolor="#d1d1d1"
     inkscape:zoom="35.625"
     inkscape:cx="12"
     inkscape:cy="12.224561"
     inkscape:window-width="1920"
     inkscape:window-height="1057"
     inkscape:window-x="-8"
     inkscape:window-y="-8"
     inkscape:window-maximized="1"
     inkscape:current-layer="svg2" />
  <g
     id="path1"
     style="opacity:1">
    <path
       style="baseline-shift:baseline;display:inline;overflow:visible;vector-effect:none;fill:#202939;stroke-linecap:round;stroke-linejoin:round;enable-background:accumulate;stop-color:#000000;stop-opacity:1"
       d="m 14,12 -3.5,2 v -4 z"
       id="path3" />
    <path
       style="baseline-shift:baseline;display:inline;overflow:visible;vector-effect:none;fill:#202939;stroke-linecap:round;stroke-linejoin:round;enable-background:accumulate;stop-color:#000000;stop-opacity:1"
       d="M 10.873047,9.3496094 A 0.750075,0.750075 0 0 0 9.75,10 v 4 a 0.750075,0.750075 0 0 0 1.123047,0.650391 l 3.5,-2 a 0.750075,0.750075 0 0 0 0,-1.300782 z M 11.25,11.292969 12.488281,12 11.25,12.707031 Z"
       id="path4" />
  </g>
  <path
     style="baseline-shift:baseline;display:inline;overflow:visible;vector-effect:none;fill:#202939;enable-background:accumulate;stop-color:#000000;stop-opacity:1;opacity:1"
     d="m 12,4.1503906 c -1.193421,0 -2.5792121,0.02633 -3.9335937,0.064453 -1.425455,0.040499 -2.5105519,0.068035 -3.4218751,0.21875 C 3.7332081,4.5843089 2.953532,4.8929226 2.3671875,5.4960937 1.7792303,6.1009425 1.4936652,6.8934363 1.3691406,7.8183594 1.2446161,8.7432824 1.25,9.8454637 1.25,11.292969 v 1.416015 c 0,1.446914 -0.00525,2.547698 0.1191406,3.472657 0.124392,0.924958 0.4096367,1.718922 0.9980469,2.324218 0.5863445,0.603172 1.3659631,0.911914 2.2773437,1.0625 0.9113807,0.150587 1.9963763,0.174844 3.4218751,0.214844 1.3557343,0.03914 2.7401727,0.06641 3.9335937,0.06641 1.193421,0 2.578834,-0.02727 3.933594,-0.06641 1.42609,-0.04 2.510649,-0.06412 3.421875,-0.214844 0.911225,-0.150721 1.691115,-0.460095 2.277343,-1.0625 v -0.002 c 0.58764,-0.605171 0.873523,-1.397344 0.998047,-2.322265 C 22.755384,15.256719 22.75,14.155031 22.75,12.707031 v -1.414062 c 0,-1.4470916 0.0037,-2.5477207 -0.121094,-3.4726565 C 22.504105,6.8953767 22.220449,6.1012622 21.632812,5.4960937 21.046897,4.8926975 20.266694,4.5843155 19.355469,4.4335937 18.444243,4.282872 17.359049,4.2553425 15.933594,4.2148437 14.578236,4.1767212 13.193421,4.1503906 12,4.1503906 Z m 0,1.5 c 1.170579,0 2.543982,0.026576 3.890625,0.064453 1.425545,0.040501 2.479929,0.074737 3.220703,0.1972657 0.740775,0.1225282 1.126228,0.3003025 1.445313,0.6289062 0.317363,0.3268315 0.483989,0.722949 0.585937,1.4785157 C 21.244527,8.7750979 21.25,9.8460501 21.25,11.292969 v 1.414062 c 0,1.448 -0.0037,2.51786 -0.105469,3.273438 -0.101725,0.755578 -0.27053,1.151687 -0.58789,1.478515 -0.319772,0.328596 -0.704538,0.506378 -1.445313,0.628907 -0.740774,0.122528 -1.794793,0.157268 -3.220703,0.197265 -1.345241,0.03886 -2.720046,0.06445 -3.890625,0.06445 -1.170579,0 -2.5443594,-0.02559 -3.890625,-0.06445 -1.4255012,-0.04 -2.4798338,-0.07485 -3.2207031,-0.197265 C 4.1478025,17.965477 3.7630149,17.787813 3.4433594,17.458984 3.1257696,17.132281 2.9570768,16.73601 2.8554688,15.980469 2.7538607,15.224927 2.75,14.156071 2.75,12.708984 V 11.292969 C 2.75,9.8454638 2.7537433,8.7751107 2.8554688,8.0195313 2.9571942,7.2639518 3.1263166,6.8671668 3.4433594,6.5410156 3.7630149,6.2121868 4.147745,6.0346443 4.8886719,5.9121094 5.6295987,5.7895745 6.68383,5.755345 8.109375,5.7148437 9.4549934,5.6769671 10.829421,5.6503906 12,5.6503906 Z"
     id="path2" />
</svg>
