<svg width="90" height="90" viewBox="0 0 90 90" fill="none" xmlns="http://www.w3.org/2000/svg">
<g opacity="0.45">
<path d="M8.328 47.9959C8.05066 47.9959 7.77722 48.0154 7.51159 48.0545V35.5275C7.51159 33.6916 9.00769 32.1994 10.8397 32.1994H20.2928C21.5155 32.1994 22.5662 32.8049 23.1756 33.8635L24.6522 36.4182H48.5932C50.4291 36.4182 51.9213 37.9143 51.9213 39.7463V43.3596C51.6557 43.3205 51.3822 43.301 51.1049 43.301H47.1557V41.5588C47.1557 41.2463 46.9018 40.9924 46.5893 40.9924L12.8313 40.9885C12.5188 40.9885 12.2649 41.2424 12.2649 41.5549V47.9924H8.32736L8.328 47.9959ZM54.433 59.7109V48.9139C54.433 47.078 52.9369 45.5858 51.1049 45.5858H39.9919C38.7692 45.5858 37.7185 46.1913 37.1091 47.2499L35.3591 50.2811H8.3281C6.4922 50.2811 5 51.7772 5 53.6092V73.7732C5 75.6091 6.4961 77.1013 8.3281 77.1013H42.1371V66.0853C42.1371 62.5736 45.0082 59.7025 48.5199 59.7025H54.434L54.433 59.7109ZM70.761 66.0937V80.8747C70.761 83.1286 68.9172 84.9724 66.6633 84.9724H48.5153C46.2614 84.9724 44.4176 83.1286 44.4176 80.8747V66.0937C44.4176 63.8398 46.2614 61.996 48.5153 61.996H66.6633C68.9172 61.996 70.761 63.8398 70.761 66.0937ZM58.839 73.4843L63.5382 69.7343C63.8312 69.8632 64.1554 69.9296 64.4952 69.9296C65.8311 69.9296 66.9132 68.8476 66.9132 67.5116C66.9132 66.1757 65.8312 65.0936 64.4952 65.0936C63.1593 65.0936 62.0772 66.1756 62.0772 67.5116C62.0772 67.66 62.0929 67.8085 62.1163 67.953L56.6163 72.3436H52.8194C52.4131 71.5819 51.6085 71.0663 50.6866 71.0663C49.3507 71.0663 48.2686 72.1483 48.2686 73.4843C48.2686 74.8203 49.3506 75.9023 50.6866 75.9023C51.6085 75.9023 52.4132 75.3867 52.8194 74.625H56.6163L62.1163 79.0156C62.089 79.1601 62.0772 79.3047 62.0772 79.457C62.0772 80.7929 63.1592 81.875 64.4952 81.875C65.8311 81.875 66.9132 80.793 66.9132 79.457C66.9132 78.1211 65.8312 77.039 64.4952 77.039C64.1554 77.039 63.8312 77.1093 63.5382 77.2343L58.839 73.4843ZM16.546 23.9063V9.12529C16.546 6.87139 18.3898 5.02759 20.6437 5.02759H38.7917C41.0456 5.02759 42.8894 6.87139 42.8894 9.12529V23.9063C42.8894 26.1602 41.0456 28.004 38.7917 28.004H20.6437C18.3898 28.004 16.546 26.1602 16.546 23.9063ZM25.5812 21.1016C25.5812 21.5781 25.8195 21.9883 26.2296 22.2266C26.6437 22.4649 27.1164 22.4649 27.5304 22.2266L35.4757 17.6368C35.8898 17.3985 36.1242 16.9883 36.1242 16.5118C36.1242 16.0352 35.8859 15.6251 35.4757 15.3868L27.5304 10.797C27.1164 10.5587 26.6437 10.5587 26.2296 10.797C25.8156 11.0353 25.5812 11.4454 25.5812 11.922V21.1016ZM64.0152 25.6172L55.1441 18.3438V33.1528C55.1441 33.2387 55.148 33.3247 55.1597 33.4067L64.0152 25.6172ZM70.4371 27.3438L84.3081 15.9688C84.0854 15.7735 83.8198 15.6289 83.5308 15.543H56.6168C56.3277 15.625 56.0621 15.7735 55.8394 15.9688L69.7104 27.3438C69.9174 27.5157 70.2262 27.5157 70.4371 27.3438ZM76.1324 25.6172L84.9879 33.4063C84.9996 33.3243 85.0035 33.2383 85.0035 33.1524V18.3434L76.1324 25.6172ZM71.8824 29.1016C71.3512 29.5391 70.7105 29.7578 70.0738 29.7578C69.4371 29.7578 68.8004 29.5391 68.2652 29.1016L65.8043 27.0821L56.691 35.0977H83.453L74.3397 27.0821L71.8788 29.1016H71.8824Z" fill="url(#paint0_linear_133_5516)"/>
</g>
<defs>
<linearGradient id="paint0_linear_133_5516" x1="45.0018" y1="5.02759" x2="45.0018" y2="84.9724" gradientUnits="userSpaceOnUse">
<stop stop-color="white"/>
<stop offset="1" stop-color="white" stop-opacity="0"/>
</linearGradient>
</defs>
</svg>
