<svg width="105" height="105" viewBox="0 0 105 105" fill="none" xmlns="http://www.w3.org/2000/svg">
<g opacity="0.45">
<path fill-rule="evenodd" clip-rule="evenodd" d="M84.2199 21.2176C86.8403 21.2176 89.4152 23.633 89.4152 26.3036V50.5714C89.3468 50.5805 89.2785 50.5942 89.2101 50.6033C87.77 50.8494 86.4529 50.3071 85.6053 49.1131C85.2498 48.6118 84.8716 48.1789 84.4706 47.8143V24.663C84.4706 23.1362 83.5682 21.8192 82.2649 21.2131H84.22L84.2199 21.2176ZM63.3342 60.7291H22.7155L22.5651 59.371C22.0046 54.2714 17.9532 50.2199 12.8536 49.6594L11.4955 49.509V21.9967L12.8536 21.8463C17.9532 21.2858 22.0047 17.2344 22.5651 12.1347L22.7155 10.7766H70.7904C72.1667 10.7766 73.3743 11.5149 74.0443 12.6086V11.0272C74.0443 8.40678 71.629 5.82739 68.9584 5.82739L6.55103 5.84106V65.6782H59.6075C59.9311 64.1105 60.838 62.8117 62.3556 61.7362C62.7567 61.4491 63.0893 61.1118 63.3354 60.7336L63.3342 60.7291ZM60.8277 25.7384C61.4521 25.7384 61.9671 25.228 61.9671 24.5991V19.0164C61.9671 18.392 61.4566 17.8771 60.8277 17.8771H35.1377C34.5134 17.8771 33.9984 18.3875 33.9984 19.0164V24.5991C33.9984 25.2235 34.5088 25.7384 35.1377 25.7384H60.8277ZM33.9991 52.3116C33.2654 52.3116 32.6684 52.9086 32.6684 53.6423C32.6684 54.3806 33.2654 54.973 33.9991 54.973H56.7351C57.4688 54.973 58.0658 54.376 58.0658 53.6423C58.0658 52.904 57.4688 52.3116 56.7351 52.3116H33.9991ZM78.4736 39.1224C78.4736 38.3887 77.8766 37.7917 77.1429 37.7917L18.8235 37.7872C18.0898 37.7872 17.4928 38.3842 17.4928 39.1179C17.4928 39.8562 18.0898 40.4486 18.8235 40.4486H77.1475C77.8813 40.4486 78.4782 39.8516 78.4782 39.1179L78.4736 39.1224ZM24.1466 31.8626C24.1466 32.5964 24.7436 33.1933 25.4773 33.1933H70.4849C71.2187 33.1933 71.8157 32.5963 71.8157 31.8626C71.8157 31.1244 71.2186 30.5319 70.4849 30.5319L25.4819 30.5274C24.7482 30.5274 24.1512 31.1244 24.1512 31.8581L24.1466 31.8626ZM73.2422 46.3865C73.2422 45.6527 72.6452 45.0558 71.9115 45.0558L18.8235 45.0466C18.0898 45.0466 17.4928 45.6437 17.4928 46.3773C17.4928 47.1156 18.0898 47.708 18.8235 47.708H71.9162C72.6499 47.708 73.2469 47.111 73.2469 46.3773L73.2422 46.3865ZM76.7012 18.5591H84.2161C85.1823 18.5591 86.1256 18.7597 87.0097 19.1197L76.1406 8.25055C76.5006 9.13466 76.7011 10.078 76.7011 11.0441L76.7012 18.5591ZM89.2113 83.4958C87.7712 83.2497 86.4542 83.8011 85.6066 84.986C84.964 85.8883 84.2303 86.5992 83.378 87.0869L87.7119 99.1724L91.572 94.5194L97.6332 95.0572L92.1279 83.4407C91.221 83.664 90.2457 83.6685 89.2067 83.4953L89.2113 83.4958ZM74.9745 84.986C74.2773 84.0062 73.2518 83.4365 72.0442 83.4365C71.8209 83.4365 71.593 83.4548 71.3743 83.4958C70.3215 83.6735 69.3372 83.6644 68.4165 83.432L62.925 95.0257L68.9862 94.488L72.8463 99.141L77.1756 87.0683C76.3325 86.5807 75.6079 85.8793 74.9745 84.986ZM83.4419 83.4456C82.5624 84.6807 81.6236 85.2093 80.2929 85.2093C78.9622 85.2093 78.0234 84.6852 77.1484 83.4456C75.927 81.7275 74.0768 80.775 72.0442 80.775C71.6751 80.775 71.3059 80.8069 70.9277 80.8707C69.4329 81.1259 68.3938 80.8297 67.4595 79.8909C66.5207 78.9521 66.229 77.9176 66.4797 76.4228C66.899 73.9709 65.9328 71.6421 63.9049 70.2021C62.6698 69.3271 62.1412 68.3837 62.1412 67.0576C62.1412 65.7314 62.6699 64.7881 63.9049 63.9131C65.9329 62.4729 66.899 60.1487 66.4797 57.6924C66.2245 56.1977 66.5207 55.1631 67.4595 54.2242C68.3983 53.2854 69.4374 52.9938 70.9277 53.2444C73.3795 53.6591 75.7083 52.6975 77.1483 50.665C78.0233 49.43 78.9667 48.9014 80.2928 48.9014C81.619 48.9014 82.5624 49.43 83.4419 50.665C84.882 52.6931 87.2063 53.6592 89.6626 53.2444C91.1573 52.9892 92.1965 53.2809 93.1307 54.2242C94.0695 55.163 94.3612 56.2021 94.1105 57.6924C93.6958 60.1488 94.6574 62.473 96.6854 63.9131C97.9204 64.7926 98.449 65.7314 98.449 67.0576C98.449 68.3837 97.9204 69.3271 96.6854 70.2021C94.6574 71.6422 93.6912 73.971 94.1105 76.4228C94.3658 77.9129 94.0695 78.9521 93.1307 79.8954C92.1919 80.8343 91.1529 81.1259 89.6626 80.8753C87.2107 80.4605 84.8819 81.4221 83.4419 83.4501L83.4419 83.4456ZM89.7128 67.0528C89.7128 61.8666 85.4791 57.6329 80.2929 57.6329C75.1067 57.6329 70.873 61.8666 70.873 67.0528C70.873 72.239 75.1067 76.4727 80.2929 76.4727C85.4791 76.4727 89.7128 72.239 89.7128 67.0528ZM83.0728 63.4161L78.7206 67.7683L77.7271 66.0502C77.3579 65.4167 76.5468 65.1979 75.9133 65.5671C75.2798 65.9362 75.0611 66.7474 75.4302 67.3809L77.2896 70.6029C77.7271 71.3548 78.7662 71.4961 79.3815 70.8763L84.9595 65.2983C85.4791 64.7787 85.4791 63.9356 84.9595 63.4161C84.44 62.8966 83.5969 62.8966 83.0773 63.4161L83.0728 63.4161Z" fill="url(#paint0_linear_133_5512)"/>
</g>
<defs>
<linearGradient id="paint0_linear_133_5512" x1="52.5" y1="5.82739" x2="52.5" y2="99.1724" gradientUnits="userSpaceOnUse">
<stop stop-color="white"/>
<stop offset="1" stop-color="white" stop-opacity="0"/>
</linearGradient>
</defs>
</svg>
