<svg width="72" height="72" viewBox="0 0 72 72" fill="none" xmlns="http://www.w3.org/2000/svg">
<rect x="2.5" y="2.5" width="67" height="67" rx="33.5" fill="#145FCB"/>
<rect x="2.5" y="2.5" width="67" height="67" rx="33.5" stroke="#E6F0FF" stroke-width="5"/>
<path d="M37.6667 49.3334V46.0001C37.6667 41.3977 33.9357 37.6667 29.3333 37.6667C24.731 37.6667 21 41.3977 21 46.0001V49.3334H37.6667ZM37.6667 49.3334H51V47.6667C51 42.7575 47.269 39.3334 42.6667 39.3334C40.3111 39.3334 38.1838 40.3759 36.6682 42.0519M34.3333 27.6667C34.3333 30.4282 32.0948 32.6667 29.3333 32.6667C26.5719 32.6667 24.3333 30.4282 24.3333 27.6667C24.3333 24.9053 26.5719 22.6667 29.3333 22.6667C32.0948 22.6667 34.3333 24.9053 34.3333 27.6667ZM46 31.0001C46 32.841 44.5076 34.3334 42.6667 34.3334C40.8257 34.3334 39.3333 32.841 39.3333 31.0001C39.3333 29.1591 40.8257 27.6667 42.6667 27.6667C44.5076 27.6667 46 29.1591 46 31.0001Z" stroke="white" stroke-width="2" stroke-linecap="round" stroke-linejoin="round"/>
</svg>
