<svg width="36" height="36" viewBox="0 0 36 36" fill="none" xmlns="http://www.w3.org/2000/svg">
<rect width="36" height="36" rx="8" fill="#F4F8FD"/>
<path d="M9 15H27M13 9V11M23 9V11M12 19H14M12 23H14M17 19H19M17 23H19M22 19H24M22 23H24M12.2 27H23.8C24.9201 27 25.4802 27 25.908 26.782C26.2843 26.5903 26.5903 26.2843 26.782 25.908C27 25.4802 27 24.9201 27 23.8V14.2C27 13.0799 27 12.5198 26.782 12.092C26.5903 11.7157 26.2843 11.4097 25.908 11.218C25.4802 11 24.9201 11 23.8 11H12.2C11.0799 11 10.5198 11 10.092 11.218C9.71569 11.4097 9.40973 11.7157 9.21799 12.092C9 12.5198 9 13.0799 9 14.2V23.8C9 24.9201 9 25.4802 9.21799 25.908C9.40973 26.2843 9.71569 26.5903 10.092 26.782C10.5198 27 11.0799 27 12.2 27Z" stroke="#145FCB" stroke-width="1.5" stroke-linecap="round" stroke-linejoin="round"/>
</svg>
