<svg width="92" height="92" viewBox="0 0 92 92" fill="none" xmlns="http://www.w3.org/2000/svg">
<rect width="92" height="92" rx="8" fill="#F0F6FF"/>
<path d="M25.2501 76.8058V69.0673C25.2501 66.6022 23.2115 64.574 20.7337 64.574H12.9555L25.2501 76.8058ZM17.4405 32.0443C16.9858 31.2486 18.1776 30.5777 18.6324 31.3578L20.5769 34.6966L26.5047 28.7991C27.1476 28.1594 28.1356 29.1267 27.4927 29.782L20.9219 36.3191C20.6083 36.6312 20.0437 36.6 19.7928 36.1163L17.4405 32.0443ZM17.4405 21.4975C16.9858 20.7018 18.1776 20.0309 18.6324 20.811L20.5769 24.1498L26.5047 18.2523C27.1476 17.6126 28.1356 18.5799 27.4927 19.2352L20.9219 25.7723C20.6083 26.0844 20.0437 26.0532 19.7928 25.5695L17.4405 21.4975ZM73.676 46.5383L58.0881 58.2396C57.2099 58.8949 56.6924 59.8466 56.5513 60.8451C56.0651 64.3399 60.0797 66.649 62.8711 64.5428L78.459 52.8414C81.2504 50.7508 80.1369 46.2731 76.6242 45.7894C75.6048 45.649 74.5385 45.883 73.676 46.5383ZM58.5899 66.3682C55.2026 65.1044 54.0422 60.9387 56.2376 58.1148C54.199 55.681 52.819 53.8867 51.5174 51.9209C50.8274 53.996 49.761 55.8214 47.6753 56.6951C45.4014 57.6468 43.4569 56.6483 42.265 54.5264L37.8584 58.9105C37.7643 59.0041 37.6389 59.0665 37.5134 59.0977L30.927 60.8607C30.4409 60.9855 29.9234 60.5643 30.0802 59.987L31.7111 53.3095C31.7425 53.1847 31.8052 53.0754 31.8993 52.9818L40.4459 44.4789C40.2107 39.5175 39.9598 32.5591 40.2421 28.0034C40.4146 24.9923 43.1746 23.2137 45.7778 22.9172C45.8092 22.9172 45.8562 22.9172 45.8876 22.9172C49.8394 23.0888 52.9131 23.2293 55.3281 23.4165C56.567 23.5101 57.649 23.6193 58.6056 23.7753V18.7047C58.6056 16.2397 56.5827 14.2114 54.0892 14.2114H16.4839C14.0062 14.2114 11.9675 16.2241 11.9675 18.7047V63.201H20.7337C23.9799 63.201 26.6458 65.8377 26.6458 69.0673V77.7887H54.0892C56.567 77.7887 58.6056 75.776 58.6056 73.2953V66.3682H58.5899ZM52.9758 34.8994C51.2351 33.386 49.7924 32.4967 48.679 32.1691C46.9853 31.6698 46.5148 32.6683 46.5148 34.4001C46.5148 35.5859 46.7658 37.1148 47.3146 38.987C47.346 39.0339 47.3617 39.0963 47.3617 39.1587C47.9419 41.1245 48.8201 43.4492 50.0276 46.1015C50.0433 46.1327 50.059 46.1795 50.0746 46.2107C50.6078 47.3652 51.1881 48.5665 51.831 49.8459C52.2701 50.5636 52.8347 51.4685 53.7129 52.6854C54.544 53.8399 55.6574 55.2909 57.2099 57.1475L57.2256 57.1319L72.7821 45.4618L72.8762 45.3994C69.6928 39.8919 67.9677 35.8667 66.7132 32.9024C66.3996 32.1691 66.1173 31.4982 65.8507 30.9053L57.8999 38.8154C57.6177 39.0807 57.1942 39.0807 56.912 38.8154L52.9758 34.8994ZM54.0265 33.9789C55.0772 34.8994 56.222 36.0071 57.4295 37.3333L76.0439 18.814L72.045 14.8355L53.4149 33.3704L54.0265 33.9789ZM45.9032 39.0495C45.2132 36.5844 44.4919 32.8711 46.1385 31.2954C47.7694 29.7508 50.451 31.233 52.2544 32.5435L59.5309 25.3199C58.2449 25.0547 56.8963 24.9142 55.2183 24.7738C52.7719 24.571 49.7453 24.4462 45.9032 24.2746C44.8682 24.3994 43.7078 24.8518 42.8453 25.6319C42.1866 26.2404 41.7005 27.0517 41.6378 28.0814C41.3869 32.2939 41.5907 38.5034 41.7946 43.1527L45.9032 39.0495ZM48.6005 46.2887C47.6439 44.1668 46.9069 42.2634 46.358 40.5628L33.0284 53.8243L31.7111 59.2225L37.0273 57.8028L48.6005 46.2887ZM50.5451 50.3139C50.0746 49.3934 49.6356 48.4885 49.2278 47.6148L43.3157 53.4967C44.4135 55.7278 46.0914 56.3206 48.1301 54.8541C49.416 53.9335 50.3412 51.4997 50.5451 50.3139ZM17.4405 42.5755C16.9858 41.7954 18.1776 41.1089 18.6324 41.889L20.5769 45.2278L26.5047 39.3303C27.1476 38.6906 28.1356 39.6735 27.4927 40.3132L20.9219 46.8503C20.6083 47.1624 20.0437 47.1312 19.7928 46.6475L17.4405 42.5755ZM17.4405 53.1223C16.9858 52.3266 18.1776 51.6401 18.6324 52.4202L20.5769 55.759L26.5047 49.8615C27.1476 49.2218 28.1356 50.2047 27.4927 50.8444L20.9219 57.3815C20.6083 57.6936 20.0437 57.6468 19.8085 57.1943L17.4405 53.1223ZM33.3107 67.2107C32.4011 67.2107 32.4011 65.8377 33.3107 65.8377H50.7019C51.6115 65.8377 51.6115 67.2107 50.7019 67.2107H33.3107Z" fill="url(#paint0_linear_182_430)"/>
<defs>
<linearGradient id="paint0_linear_182_430" x1="46" y1="77.7887" x2="46" y2="14.2114" gradientUnits="userSpaceOnUse">
<stop stop-color="#0051A2"/>
<stop offset="1" stop-color="#3483F5"/>
</linearGradient>
</defs>
</svg>
