<svg width="92" height="92" viewBox="0 0 92 92" fill="none" xmlns="http://www.w3.org/2000/svg">
<rect width="92" height="92" rx="8" fill="#F0F6FF"/>
<path d="M80.1338 65.8739H71.7583C69.1986 65.8739 67.0926 67.9805 67.0926 70.577V79.0199L80.1338 65.8739ZM43.9587 19.0547C35.1782 19.0547 26.3977 19.0547 17.6009 19.0547C13.8911 19.0547 10.8455 22.1248 10.8455 25.8644V66.1352C10.8455 69.8748 13.8911 72.9449 17.6009 72.9449H43.9587C47.6686 72.9449 50.7142 69.8748 50.7142 66.1352V25.8644C50.7142 22.1248 47.6686 19.0547 43.9587 19.0547ZM31.8733 17.6176H43.9587C48.4624 17.6176 52.1398 21.3246 52.1398 25.8644V66.1352C52.1398 70.675 48.4624 74.382 43.9587 74.382H31.8733V75.3292C31.8733 77.9094 33.9632 80.0323 36.539 80.0323H65.667V70.5607C65.667 67.1803 68.4048 64.4205 71.7583 64.4205H81.1544V16.6704C81.1544 14.0902 79.0646 11.9673 76.4887 11.9673H36.539C33.9794 11.9673 31.8733 14.0739 31.8733 16.6704V17.6176ZM57.6965 21.0633C56.7569 21.0633 56.7569 19.6099 57.6965 19.6099H74.3989C75.3385 19.6099 75.3385 21.0633 74.3989 21.0633H57.6965ZM58.2959 31.6291C57.3563 31.6291 57.3563 30.192 58.2959 30.192H74.3827C75.3223 30.192 75.3223 31.6291 74.3827 31.6291H58.2959ZM58.2959 42.7827C57.3563 42.7827 57.3563 41.3456 58.2959 41.3456H74.3827C75.3223 41.3456 75.3223 42.7827 74.3827 42.7827H58.2959ZM58.2959 53.9037C57.3563 53.9037 57.3563 52.4666 58.2959 52.4666H74.3827C75.3223 52.4666 75.3223 53.9037 74.3827 53.9037H58.2959ZM32.489 60.0113L30.7879 57.0718L29.1031 59.9786C29.0059 60.1583 28.8277 60.3052 28.6171 60.3542L25.3285 61.0728L27.5479 63.5876C27.6937 63.7346 27.7747 63.9469 27.7585 64.1592L27.4183 67.5396L30.4963 66.1678C30.6745 66.0862 30.8851 66.0862 31.0795 66.1678L34.1576 67.5396L33.8174 64.1592C33.8012 63.9632 33.8498 63.7673 33.9956 63.604L36.2474 61.0728L32.9426 60.3542C32.7644 60.3215 32.5862 60.2072 32.489 60.0113ZM31.4035 55.2918L33.5582 59.0151L37.754 59.9296C38.2724 60.0439 38.5478 60.6971 38.0942 61.1544L35.2754 64.3388L35.6966 68.6501C35.7452 69.2053 35.1944 69.5972 34.7084 69.3849L30.7879 67.6376L26.8675 69.3849C26.3815 69.5972 25.7821 69.2216 25.8793 68.6011L26.3005 64.3388L23.4492 61.1217C23.0766 60.7135 23.3034 60.0439 23.838 59.946L28.0339 59.0315L30.1885 55.3081C30.4477 54.8019 31.1443 54.8182 31.4035 55.2918ZM44.1207 54.4589L43.2297 52.9239L42.3549 54.4426C42.2577 54.6222 42.0795 54.7692 41.8689 54.8182L40.1355 55.1938L41.3019 56.5002C41.4477 56.6472 41.5287 56.8595 41.4963 57.0718L41.3181 58.8518L42.9381 58.1333C43.1163 58.0516 43.3269 58.0516 43.5051 58.1333L45.1251 58.8518L44.9469 57.0718C44.9307 56.8758 44.9793 56.6799 45.1251 56.5166L46.3077 55.1775L44.5743 54.8019C44.3961 54.7692 44.2341 54.6549 44.1207 54.4589ZM43.8453 51.1275L45.1899 53.4628L47.8144 54.0344C48.3328 54.1487 48.6082 54.8019 48.1546 55.2591L46.4049 57.2351L46.6803 59.9296C46.7289 60.4849 46.1619 60.8768 45.6759 60.6645L43.2135 59.5704L40.7511 60.6645C40.2651 60.8768 39.6656 60.5012 39.7466 59.8806L40.0058 57.2188L38.2238 55.1938C37.8512 54.7855 38.078 54.1323 38.6126 54.018L41.2371 53.4465L42.5817 51.1112C42.8895 50.6376 43.5861 50.654 43.8453 51.1275ZM19.221 54.4589L18.33 52.9239L17.4551 54.4426C17.3579 54.6222 17.1797 54.7692 16.9691 54.8182L15.2357 55.1938L16.4021 56.5002C16.5479 56.6472 16.6289 56.8595 16.6127 57.0718L16.4345 58.8518L18.0546 58.1333C18.2328 58.0516 18.4434 58.0516 18.6378 58.1333L20.2578 58.8518L20.0796 57.0718C20.0634 56.8758 20.1282 56.6799 20.2578 56.5166L21.4404 55.1775L19.707 54.8019C19.5126 54.7692 19.3344 54.6549 19.221 54.4589ZM18.9618 51.1275L20.3064 53.4628L22.9308 54.0344C23.4492 54.1487 23.7246 54.8019 23.271 55.2591L21.5214 57.2351L21.7968 59.9296C21.8454 60.4849 21.2784 60.8768 20.7924 60.6645L18.33 59.5704L15.8675 60.6645C15.3815 60.8768 14.7983 60.5012 14.8631 59.8806L15.1385 57.2188L13.3565 55.1938C12.9839 54.7855 13.2107 54.1323 13.7453 54.018L16.3697 53.4465L17.7144 51.1112C18.006 50.6376 18.6864 50.654 18.9618 51.1275ZM34.2062 27.5138C31.1767 24.46 25.9603 26.632 25.9603 30.9595C25.9603 32.2986 26.5111 33.5234 27.3859 34.4052C28.1311 35.1564 29.1031 35.6627 30.2047 35.7933H31.4035C32.4889 35.6627 33.4772 35.1564 34.2224 34.4052C36.0854 32.4946 36.0854 29.4081 34.2062 27.5138ZM31.4683 37.2304C30.8527 37.2957 30.6745 37.2631 30.0913 37.2304H28.2121C24.3564 37.2304 21.1812 40.4148 21.1812 44.3178V48.5147H40.3785V44.3178C40.3785 40.4148 37.2194 37.2304 33.3476 37.2304H31.4683ZM30.7879 24.6397C34.2548 24.6397 37.0574 27.4648 37.0574 30.9595C37.0574 32.9355 36.1502 34.7318 34.6922 35.8913C38.7422 36.5445 41.8203 40.1045 41.8203 44.3178V49.2332C41.8203 49.6251 41.4963 49.9518 41.1075 49.9518H20.4684C20.0796 49.9518 19.7556 49.6251 19.7556 49.2332V44.3178C19.7556 40.1045 22.8336 36.5445 26.8837 35.8913C23.9676 33.5397 23.7084 29.1469 26.3491 26.485C27.4831 25.3419 29.0545 24.6397 30.7879 24.6397Z" fill="url(#paint0_linear_182_423)"/>
<defs>
<linearGradient id="paint0_linear_182_423" x1="45.9999" y1="80.0323" x2="45.9999" y2="11.9673" gradientUnits="userSpaceOnUse">
<stop stop-color="#0051A2"/>
<stop offset="1" stop-color="#3483F5"/>
</linearGradient>
</defs>
</svg>
