<svg width="54" height="54" viewBox="0 0 54 54" fill="none" xmlns="http://www.w3.org/2000/svg">
<rect width="54" height="54" rx="8" fill="#F4F8FD"/>
<g clip-path="url(#clip0_267_20356)">
<path d="M43.5 27C43.5 17.8873 36.1127 10.5 27 10.5C17.8873 10.5 10.5 17.8873 10.5 27C10.5 35.2355 16.5338 42.0617 24.4219 43.2996V31.7695H20.2324V27H24.4219V23.3648C24.4219 19.2295 26.8853 16.9453 30.6542 16.9453C32.4589 16.9453 34.3477 17.2676 34.3477 17.2676V21.3281H32.2671C30.2175 21.3281 29.5781 22.6001 29.5781 23.9062V27H34.1543L33.4228 31.7695H29.5781V43.2996C37.4662 42.0617 43.5 35.2355 43.5 27Z" fill="#1877F2"/>
<path d="M33.4228 31.7695L34.1543 27H29.5781V23.9062C29.5781 22.6014 30.2175 21.3281 32.2671 21.3281H34.3477V17.2676C34.3477 17.2676 32.4595 16.9453 30.6542 16.9453C26.8853 16.9453 24.4219 19.2295 24.4219 23.3648V27H20.2324V31.7695H24.4219V43.2996C26.1302 43.5668 27.8698 43.5668 29.5781 43.2996V31.7695H33.4228Z" fill="white"/>
</g>
<defs>
<clipPath id="clip0_267_20356">
<rect width="33" height="33" fill="white" transform="translate(10.5 10.5)"/>
</clipPath>
</defs>
</svg>
