<svg width="72" height="72" viewBox="0 0 72 72" fill="none" xmlns="http://www.w3.org/2000/svg">
<rect x="2.5" y="2.5" width="67" height="67" rx="33.5" fill="#145FCB"/>
<rect x="2.5" y="2.5" width="67" height="67" rx="33.5" stroke="#E6F0FF" stroke-width="5"/>
<path d="M32.6667 43.6399V47.666C32.6667 49.507 34.1591 50.9994 36 50.9994C37.8409 50.9994 39.3333 49.507 39.3333 47.666L39.3333 43.6399M36 21V22.6667M46.6071 25.3929L45.4286 26.5714M25.3929 25.3929L26.5714 26.5714M22.6667 36H21M51 36H49.3333M44.3333 36C44.3333 40.6024 40.6024 44.3333 36 44.3333C31.3976 44.3333 27.6667 40.6024 27.6667 36C27.6667 31.3976 31.3976 27.6667 36 27.6667C40.6024 27.6667 44.3333 31.3976 44.3333 36Z" stroke="white" stroke-width="2" stroke-linecap="round" stroke-linejoin="round"/>
</svg>
