<svg width="30" height="30" viewBox="0 0 30 30" fill="none" xmlns="http://www.w3.org/2000/svg">
<path d="M27.5 9.99996H25M25 9.99996H23.75C21.25 7.50219 17.5 4.99971 15 7.49996M25 9.99996V20M15 7.49996L11.2494 11.252C11.1502 11.3512 11.1007 11.4009 11.0607 11.4448C10.1937 12.3986 10.1941 13.8553 11.0616 14.8088C11.1015 14.8526 11.1512 14.9023 11.2504 15.0014C11.3496 15.1006 11.3992 15.1501 11.4431 15.1901C12.3968 16.0567 13.853 16.0565 14.8064 15.1895C14.8503 15.1496 14.8999 15.1 14.999 15.0008L16.2495 13.7504M15 7.49996C12.5 4.99971 8.75 7.50228 6.25 10H5M2.5 10H5M5 10V20M25 20V23.75H27.5M25 20H21.4645M18.75 16.25L20.625 18.125C20.7245 18.2245 20.7744 18.2743 20.8144 18.3184C21.6811 19.2719 21.6811 20.728 20.8144 21.6815C20.7744 21.7256 20.7245 21.7755 20.625 21.875C20.5255 21.9745 20.4756 22.0243 20.4316 22.0644C19.4781 22.9311 18.0219 22.9311 17.0684 22.0644C17.0244 22.0243 16.9745 21.9745 16.875 21.875L16.25 21.25C15.5684 21.9315 15.2277 22.2723 14.86 22.4545C14.1606 22.8011 13.3394 22.8011 12.64 22.4545C12.2723 22.2723 11.9316 21.9315 11.25 21.25C10.3886 22.3986 8.61954 22.239 7.97746 20.9549L7.5 20H5M5 20V23.75H2.5" stroke="white" stroke-width="2" stroke-linecap="round" stroke-linejoin="round"/>
</svg>
