<svg width="112" height="112" viewBox="0 0 112 112" fill="none" xmlns="http://www.w3.org/2000/svg">
<rect width="111.997" height="111.999" rx="12" fill="white" fill-opacity="0.1"/>
<rect x="0.5" y="0.5" width="110.997" height="110.999" rx="11.5" stroke="white" stroke-opacity="0.2"/>
<path d="M95.9966 65.3316C95.9966 66.1949 95.2895 66.9019 94.4263 66.9019H40.3443C40.4849 66.7222 40.6216 66.5386 40.7505 66.3472C41.2974 65.5542 41.7505 64.6831 42.1021 63.7613H94.4221C95.2854 63.7613 95.9924 64.4683 95.9924 65.3316L95.9966 65.3316ZM31.4026 19.1406H94.4256C95.2888 19.1406 95.9958 18.4336 95.9958 17.5703C95.9958 16.707 95.2888 16 94.4256 16H31.4026C30.5393 16 29.8323 16.707 29.8323 17.5703C29.8323 18.4336 30.5393 19.1406 31.4026 19.1406ZM64.2306 69.1876L72.9337 84.2616H80.379L71.6758 69.1876H64.2306ZM51.7076 73.4142C52.2115 74.465 52.438 75.6915 52.5513 77.1681L52.5552 77.1915V77.215C52.688 79.5705 52.7349 81.9142 52.7271 84.2619H52.8911L61.5942 69.1879H54.1489L51.7114 73.4145L51.7076 73.4142ZM42.7349 61.4762C43.2036 58.8746 42.8638 56.1285 41.481 53.8981C39.6685 50.9684 36.5787 49.695 33.2193 49.695C33.1138 49.695 33.0083 49.695 32.9028 49.6989L32.9067 21.4289H92.9268V61.4799H42.7387L42.7349 61.4762ZM70.7149 58.0309C75.6915 55.7536 84.9879 55.8004 87.6129 57.0231V30.2611C84.9879 29.0384 75.6908 28.9916 70.7149 31.2689V58.0309ZM60.7696 31.0189L60.9766 31.5228L61.3672 31.6009C62.6953 31.8627 63.6524 33.0267 63.6524 34.3782V37.3235C63.6524 38.679 62.6993 39.8391 61.3672 40.1047L60.9766 40.1829L60.7696 40.6868L60.9922 41.0149C61.7461 42.1399 61.5977 43.6399 60.6407 44.5969L58.5548 46.6828C57.5977 47.6398 56.0978 47.7844 54.9728 47.0343L54.6446 46.8117L54.1407 47.0187L54.0626 47.4093C53.8165 48.6593 52.7774 49.5773 51.5274 49.6827V57.0304C54.1524 55.8077 63.4494 55.7609 68.4254 58.0382V31.2762C66.5192 30.4052 63.9762 29.8739 61.4215 29.62C61.3551 29.995 61.2106 30.3622 60.9879 30.6942L60.7652 31.0224L60.7696 31.0189ZM43.3786 45.1279L44.7263 44.2256L47.4919 45.3701L47.8044 46.9599C47.8551 47.2177 48.0778 47.4013 48.3395 47.4013H51.2848C51.5504 47.4013 51.7692 47.2177 51.82 46.9599L52.1325 45.3701L54.8981 44.2256L56.2458 45.1279C56.4645 45.2763 56.7497 45.2451 56.9372 45.0615L59.0231 42.9756C59.2106 42.7881 59.2379 42.5029 59.0895 42.2842L58.1871 40.9365L59.3316 38.1709L60.9214 37.8584C61.1793 37.8076 61.3629 37.5849 61.3629 37.3232V34.3779C61.3629 34.1123 61.1793 33.8935 60.9214 33.8428L59.3316 33.5303L58.1871 30.7647L59.0895 29.417C59.2379 29.1982 59.2067 28.9131 59.0231 28.7256L56.9372 26.6397C56.7497 26.4522 56.4645 26.4248 56.2458 26.5732L54.8981 27.4756L52.1325 26.3311L51.82 24.7413C51.7692 24.4835 51.5465 24.2999 51.2848 24.2999H48.3395C48.0739 24.2999 47.8551 24.4835 47.8044 24.7413L47.4919 26.3311L44.7263 27.4756L43.3786 26.5732C43.1598 26.4248 42.8746 26.4561 42.6871 26.6397L40.6012 28.7256C40.4137 28.9131 40.3864 29.1982 40.5348 29.417L41.4372 30.7647L40.2927 33.5303L38.7029 33.8428C38.4451 33.8935 38.2615 34.1162 38.2615 34.3779V37.3232C38.2615 37.5888 38.4451 37.8076 38.7029 37.8584L40.2927 38.1709L41.4372 40.9365L40.5348 42.2842C40.3864 42.5029 40.4176 42.7881 40.6012 42.9756L42.6871 45.0615C42.8746 45.249 43.1598 45.2763 43.3786 45.1279ZM49.8122 41.7724C53.0856 41.7724 55.738 39.1201 55.738 35.8466C55.738 32.5732 53.0857 29.9208 49.8122 29.9208C46.5388 29.9208 43.8864 32.5731 43.8864 35.8466C43.8864 39.1161 46.5387 41.7724 49.8122 41.7724ZM33.2182 68.3344C35.2768 68.3383 37.3471 67.2563 38.8666 65.0492C42.183 60.2406 41.1635 51.9752 33.2182 51.9752C25.269 51.9752 24.2494 60.2408 27.5698 65.0492C29.0932 67.2562 31.1596 68.3383 33.2182 68.3344ZM47.6442 72.4047C46.2809 71.6039 43.902 70.975 41.7301 70.4203L37.566 69.3969C36.2808 70.1703 34.8121 70.6235 33.2222 70.6235C31.6324 70.6235 30.1636 70.1743 28.8784 69.3969L24.7143 70.4203C22.5424 70.975 20.1596 71.6078 18.8002 72.4047C17.0229 73.4438 16.39 74.5102 16.1713 77.3383C15.8978 82.3383 15.9877 86.9828 16.1908 91.7603C16.2923 94.1275 18.2416 95.9986 20.6127 95.9986H21.7065V83.7876C21.7065 83.1548 22.2182 82.6431 22.851 82.6431C23.4838 82.6431 23.9955 83.1548 23.9955 83.7876V95.9986H42.4685V83.7876C42.4685 83.1548 42.9802 82.6431 43.613 82.6431C44.2458 82.6431 44.7575 83.1548 44.7575 83.7876V95.9986H45.8513C48.2224 95.9986 50.1716 94.1314 50.2732 91.7603C50.4763 86.983 50.5662 82.3384 50.2927 77.3383C50.074 74.5102 49.4412 73.4438 47.6638 72.4047H47.6442ZM84.3001 51.3497C84.9291 51.4122 85.4876 50.9513 85.5462 50.3224C85.6087 49.6935 85.1478 49.1349 84.519 49.0763C81.1635 48.7482 77.5151 49.0138 73.667 49.8615C73.0498 49.9982 72.6591 50.6075 72.7959 51.2209C72.9131 51.756 73.3857 52.1193 73.9092 52.1193C73.9912 52.1193 74.0732 52.1076 74.1553 52.092C77.7647 51.2951 81.1786 51.0451 84.2923 51.3498L84.3001 51.3497ZM73.9132 38.4517C73.9913 38.4517 74.0694 38.4439 74.1475 38.4283C77.7686 37.6744 81.1748 37.4751 84.2765 37.8384C84.9015 37.9126 85.4718 37.4595 85.5421 36.8345C85.6163 36.2056 85.1671 35.6392 84.5382 35.5689C81.1944 35.1783 77.5421 35.3892 73.6792 36.1939C73.062 36.3228 72.6636 36.9283 72.7925 37.5455C72.9058 38.0846 73.3785 38.4557 73.9097 38.4557L73.9132 38.4517ZM73.9132 47.5181C73.9913 47.5181 74.0733 47.5103 74.1553 47.4908C77.7686 46.7095 81.1787 46.4752 84.2923 46.7993C84.9212 46.8658 85.4798 46.4087 85.5462 45.7798C85.6126 45.1509 85.1556 44.5923 84.5267 44.5259C81.1751 44.1783 77.5228 44.4244 73.6717 45.2564C73.0546 45.3892 72.6639 45.9986 72.7967 46.6158C72.9139 47.151 73.3858 47.5181 73.9132 47.5181ZM73.9132 43.0533C73.9913 43.0533 74.0694 43.0455 74.1514 43.0299C77.7686 42.2642 81.1787 42.0455 84.2844 42.3853C84.9133 42.4517 85.4758 42.0025 85.5461 41.3736C85.6164 40.7447 85.1633 40.1822 84.5344 40.1119C81.1867 39.7447 77.5344 39.9713 73.6794 40.7916C73.0622 40.9244 72.6677 41.526 72.7966 42.1471C72.9099 42.6862 73.3865 43.0495 73.9138 43.0495L73.9132 43.0533Z" fill="white"/>
</svg>
