<svg width="36" height="36" viewBox="0 0 36 36" fill="none" xmlns="http://www.w3.org/2000/svg">
<rect width="36" height="36" rx="8" fill="#F4F8FD"/>
<path d="M11.8233 12.0004C12.2383 12.3668 12.5 12.9029 12.5 13.5C12.5 14.6046 11.6046 15.5 10.5 15.5C9.90285 15.5 9.36683 15.2383 9.00037 14.8233M11.8233 12.0004C11.9414 12 12.0668 12 12.2 12H23.8C23.9332 12 24.0586 12 24.1767 12.0004M11.8233 12.0004C10.9485 12.0031 10.469 12.0259 10.092 12.218C9.71569 12.4097 9.40973 12.7157 9.21799 13.092C9.02593 13.469 9.00308 13.9485 9.00037 14.8233M9.00037 14.8233C9 14.9414 9 15.0668 9 15.2V20.8C9 20.9332 9 21.0586 9.00037 21.1767M9.00037 21.1767C9.36683 20.7617 9.90285 20.5 10.5 20.5C11.6046 20.5 12.5 21.3954 12.5 22.5C12.5 23.0971 12.2383 23.6332 11.8233 23.9996M9.00037 21.1767C9.00308 22.0515 9.02593 22.531 9.21799 22.908C9.40973 23.2843 9.71569 23.5903 10.092 23.782C10.469 23.9741 10.9485 23.9969 11.8233 23.9996M11.8233 23.9996C11.9414 24 12.0668 24 12.2 24H23.8C23.9332 24 24.0586 24 24.1767 23.9996M27 21.1771C26.6335 20.7619 26.0973 20.5 25.5 20.5C24.3954 20.5 23.5 21.3954 23.5 22.5C23.5 23.0971 23.7617 23.6332 24.1767 23.9996M27 21.1771C27.0004 21.0589 27 20.9334 27 20.8V15.2C27 15.0668 27 14.9414 26.9996 14.8233M27 21.1771C26.9973 22.0516 26.974 22.5311 26.782 22.908C26.5903 23.2843 26.2843 23.5903 25.908 23.782C25.5311 23.9741 25.0515 23.9969 24.1767 23.9996M26.9996 14.8233C26.6332 15.2383 26.0971 15.5 25.5 15.5C24.3954 15.5 23.5 14.6046 23.5 13.5C23.5 12.9029 23.7617 12.3668 24.1767 12.0004M26.9996 14.8233C26.9969 13.9485 26.9741 13.469 26.782 13.092C26.5903 12.7157 26.2843 12.4097 25.908 12.218C25.5311 12.0259 25.0515 12.0031 24.1767 12.0004M20 18C20 19.1046 19.1046 20 18 20C16.8954 20 16 19.1046 16 18C16 16.8954 16.8954 16 18 16C19.1046 16 20 16.8954 20 18Z" stroke="#145FCB" stroke-width="1.5" stroke-linecap="round" stroke-linejoin="round"/>
</svg>
